<?xml version="1.0" encoding="utf-8"?>
<!DOCTYPE svg PUBLIC "-//W3C//DTD SVG 1.0//EN" "http://www.w3.org/TR/2001/REC-SVG-20010904/DTD/svg10.dtd">
<svg version="1.0" xmlns="http://www.w3.org/2000/svg" width="389" height="402" viewBox="0 0 389 402" preserveAspectRatio="xMidYMid meet">
 <g fill="#f3f3f1">
  <path d="M181 401.4 c-24.5 -2 -43.3 -7.2 -66.6 -18.4 -31 -15 -60.1 -40.7 -79.7 -70.5 -14.2 -21.7 -26.5 -52.3 -30.6 -76.5 -5.6 -32.8 -4 -60.5 5.4 -91.3 14.2 -47.1 45.2 -89.7 83.2 -114.4 10.8 -7.1 30.4 -16.4 42.3 -20.1 32.9 -10.5 70.5 -12 104.7 -4.3 34.4 7.8 67.9 27.3 91.9 53.8 15.2 16.7 23.1 28.1 33.9 48.7 10.4 19.9 16.1 37.4 20.5 63.1 3 17 3 45.3 0 61.5 -9.3 51.1 -35.4 95.5 -74.5 126.9 -25.5 20.5 -55.4 34.1 -86.9 39.7 -7.9 1.4 -35.2 2.5 -43.6 1.8z m40 -14.4 c24.2 -5 48.6 -15.2 69 -28.8 8.8 -5.8 14.9 -11 26 -22.2 16.7 -16.8 21.3 -22.6 32 -40.7 8.7 -14.9 13.4 -25.8 19.1 -44.8 6.2 -20.3 7.3 -28.2 7.2 -50 0 -17.2 -0.3 -20.5 -3.2 -34.2 -1.7 -8.3 -4.5 -18.9 -6.2 -23.5 -1.7 -4.5 -4.2 -11.1 -5.5 -14.5 -2.6 -7 -10 -21.1 -15.2 -29.3 -5.2 -8.1 -12.3 -16.8 -25.1 -30.7 -17.9 -19.5 -27.7 -27.1 -49.4 -38.2 -25.8 -13.2 -57.9 -19.2 -86 -16.2 -15.5 1.7 -15.7 1.8 -15 8.3 0.4 4.4 0.2 5.7 -1.7 8.1 -1.7 2.1 -3 2.7 -6.1 2.7 -2.8 0 -3.9 -0.4 -3.9 -1.5 0 -0.8 -0.4 -1.5 -1 -1.5 -0.5 0 -1 -1.3 -1 -2.9 0 -1.6 -0.6 -3.4 -1.3 -4 -1.1 -0.8 -1.7 -0.5 -2.8 1.7 -1.9 3.6 -2.8 4.2 -7.1 4.2 -3.6 0 -3.8 -0.2 -3.8 -3 0 -2.8 -0.2 -3 -2.7 -2.4 -1.6 0.4 -5.9 2 -9.8 3.6 -3.8 1.6 -7.9 3.2 -9 3.5 -1.1 0.3 -2.7 1.4 -3.7 2.3 -0.9 1 -3.7 2.6 -6.2 3.6 -2.5 1.1 -4.6 2.2 -4.6 2.7 0 0.4 -0.7 0.7 -1.5 0.7 -0.8 0 -1.5 0.5 -1.5 1 0 0.6 -0.6 1 -1.4 1 -0.8 0 -1.6 0.4 -1.8 0.9 -0.6 1.6 -11.8 10.1 -13.3 10.1 -0.8 0 -1.5 0.5 -1.5 1.2 0 1.7 -9.1 10.8 -10.7 10.8 -0.7 0 -1.3 0.8 -1.3 1.9 0 1 -1.8 3.5 -4 5.5 -2.2 2 -4 3.8 -4 4.2 0 1.3 -6.5 8.4 -8.2 8.9 -1 0.4 -1.8 1.5 -1.8 2.6 0 1 -0.7 1.9 -1.5 1.9 -0.8 0 -1.5 0.9 -1.5 2 0 1.1 -0.6 2 -1.4 2 -0.8 0 -1.7 1.3 -2.1 3 -0.4 1.6 -1 3 -1.4 3 -0.3 0 -1.2 1.2 -1.9 2.8 -0.6 1.5 -3.9 7.9 -7.1 14.2 -3.3 6.3 -6.1 12.1 -6.1 12.8 0 0.8 -1.9 6.1 -4.1 12 -8.3 21.2 -11.1 35.5 -11.1 58.2 0 23 3.3 41.2 11.8 64.6 4 11.2 10.4 25.4 12.1 27.2 0.7 0.7 1.3 2 1.3 2.8 0 0.8 0.5 1.4 1 1.4 0.6 0 1 0.7 1 1.5 0 0.8 0.4 1.5 1 1.5 0.5 0 1.2 1.1 1.6 2.5 0.3 1.4 1 2.5 1.4 2.5 0.5 0 1.2 1 1.6 2.2 0.6 2 1.3 3.1 4.1 6.3 0.7 0.7 1.3 1.6 1.3 2 0 0.4 0.6 1.2 1.2 2 0.7 0.7 2.8 3.3 4.7 5.7 8.1 10.1 27.8 28.5 37.6 35 41.4 27.4 85.3 37.9 124.5 29.8z"/>
  <path d="M193 263.1 c0 -1.1 -0.4 -2.3 -1 -2.6 -0.5 -0.3 -1 -2.7 -1 -5.3 0 -4.7 0 -4.7 4 -4.7 3.4 -0.1 4 0.2 4 2 0 1.1 0.3 4.4 0.6 7.3 0.7 5.2 0.7 5.2 -3 5.2 -2.9 0 -3.6 -0.4 -3.6 -1.9z"/>
  <path d="M212.3 256.7 c-3.6 -5.2 -3.1 -8.1 2 -11 2.3 -1.4 6.4 -4.8 9.1 -7.6 24.2 -26 6.3 -69.2 -28.8 -69.1 -16.5 0.1 -31.8 11.7 -37.7 28.7 -5.7 16.6 1.8 36.7 17.4 47.1 2 1.3 3.7 2.7 3.7 2.9 0 0.2 -1.3 2.4 -3 4.8 -1.6 2.4 -3 4.9 -3 5.6 0 0.9 -1.6 1 -6.1 0.5 -3.4 -0.3 -7.3 -0.6 -8.5 -0.6 -2.2 0 -2.4 -0.4 -2.4 -4.6 0 -5.7 -1.4 -8.4 -4.3 -8.4 -4 0 -6.7 -2.7 -6.7 -6.8 0 -2.6 -1 -5.2 -3.5 -8.7 -1.9 -2.8 -4.2 -6.6 -5.1 -8.5 -0.9 -1.9 -2.7 -4.9 -4 -6.7 -3.2 -4.2 -3.1 -8.5 0.3 -13 2.5 -3.2 2.7 -4.2 2.4 -11.4 -0.2 -7.9 -0.2 -7.9 3.3 -7.9 4 0 3.7 1.1 4 -14 0.1 -9.1 2.1 -12 8.2 -12 4.4 0 4.6 -0.1 6.5 -4.6 1.1 -2.5 2.6 -4.7 3.4 -5 0.9 -0.4 1.1 -1.7 0.8 -4.5 -0.5 -3.6 -0.2 -4.4 2.8 -7.6 3.3 -3.3 3.6 -3.5 8.9 -3 3 0.3 7.5 1.2 9.9 2 3.9 1.4 4.7 1.4 6.5 0.1 2.9 -2 8.9 -1.8 11 0.5 0.9 1 3.5 2.2 5.8 2.5 2.2 0.4 5.3 1.6 6.9 2.7 1.5 1.1 4.4 2.6 6.5 3.5 6.5 2.7 11.3 6.3 13.9 10.4 1.4 2.2 3.1 4 3.8 4 1.8 0 8.9 3.7 9.9 5.2 0.5 0.7 0.7 4 0.6 7.3 -0.2 5.8 -0.1 6 2.5 6.3 1.6 0.2 2.7 0.9 2.7 1.8 0 0.9 0.7 2.3 1.6 3.2 1.3 1.3 1.5 2.8 0.9 8.4 -0.3 3.8 -0.4 7.7 0 8.7 0.3 1 2.8 2.8 5.6 4.1 3.8 1.8 5.4 3.3 6.5 5.8 3.6 8.6 -0.2 20.7 -7.5 23.8 -1.5 0.6 -4.8 3.6 -7.4 6.6 -4.3 5 -4.6 5.8 -4.9 11.8 -0.4 8.3 -1 8.6 -18.8 9.4 -13.5 0.6 -13.5 0.6 -15.7 -2.7z"/>
 </g>
 <g fill="#f3dfb5">
  <path d="M179.3 392.3 c-2.5 -0.3 -3.3 -0.9 -3.3 -2.4 0 -1.5 0.7 -1.9 3.5 -1.9 3.1 0 3.5 0.3 3.5 2.5 0 1.4 -0.1 2.4 -0.2 2.3 -0.2 0 -1.8 -0.3 -3.5 -0.5z"/>
  <path d="M203 390.7 c0 -2.2 0.5 -2.5 6.5 -3 5.2 -0.5 28.8 -6.2 30.4 -7.3 0.9 -0.7 -5.7 -5.3 -7.6 -5.4 -1.9 0 -2.3 -0.6 -2.3 -3.4 0 -4.4 4.4 -7.5 17 -11.7 7.4 -2.5 11.8 -3.3 20 -3.7 5.8 -0.2 11.1 -0.9 11.8 -1.4 0.6 -0.6 1.2 -2.3 1.2 -3.8 0 -4.1 9.3 -13.5 14.5 -14.4 2.1 -0.4 5.4 -2.1 7.3 -3.7 1.8 -1.6 3.9 -2.9 4.7 -2.9 0.8 0 1.5 -0.4 1.5 -1 0 -0.5 -1.6 -1 -3.5 -1 -3.4 0 -3.5 -0.1 -3.5 -3.9 0 -5 3 -7.1 11.4 -7.8 3.3 -0.3 6.7 -1.1 7.5 -1.7 0.7 -0.6 2.5 -3.5 4 -6.6 1.9 -4 3.6 -6 6.1 -7.2 4.3 -2.2 13.7 -2.3 16.4 -0.3 1.9 1.4 1.8 1.6 -1.1 7 -7.8 14.5 -34.5 41.8 -52.8 54.1 -24.3 16.1 -55.7 27.6 -84.2 30.9 -5.1 0.5 -5.3 0.5 -5.3 -1.8z m60.5 -19.9 c0.5 -0.5 0.2 -0.8 -0.8 -0.8 -1 0 -2.8 0.9 -4 2.1 -2.2 2.1 -2.2 2.1 0.8 0.8 1.7 -0.7 3.4 -1.6 4 -2.1z"/>
  <path d="M165.1 390.4 c-20.5 -3.4 -50.1 -15.9 -71.3 -30 -10.1 -6.7 -29.7 -24.9 -37.9 -35.2 -1.9 -2.4 -4 -5 -4.6 -5.7 -0.7 -0.8 -1.3 -1.6 -1.3 -2 0 -0.4 -0.6 -1.3 -1.2 -2 -2.9 -3.2 -3.6 -4.3 -4.2 -6.3 -0.4 -1.2 -1.1 -2.2 -1.6 -2.2 -0.4 0 -1.1 -1.1 -1.4 -2.5 -0.4 -1.4 -1.1 -2.5 -1.6 -2.5 -0.6 0 -1 -0.7 -1 -1.5 0 -0.8 -0.4 -1.5 -1 -1.5 -0.5 0 -1 -0.6 -1 -1.4 0 -0.8 -0.6 -2.1 -1.3 -2.8 -0.7 -0.7 -1.6 -2.1 -2 -3 -0.5 -1.4 -0.1 -1.8 1.8 -1.8 2 0 2.5 0.5 2.5 2.5 0 1.6 0.6 2.5 1.5 2.5 0.8 0 1.5 0.7 1.5 1.5 0 0.8 0.5 1.5 1 1.5 0.6 0 1 1.1 1 2.5 0 1.6 0.6 2.5 1.5 2.5 0.9 0 1.5 0.9 1.5 2.5 0 1.6 0.6 2.5 1.5 2.5 0.8 0 1.5 0.9 1.5 2 0 1.1 0.7 2 1.5 2 0.8 0 1.5 0.7 1.5 1.5 0 0.8 0.5 1.5 1 1.5 0.6 0 1 1.1 1 2.4 0 1.8 0.6 2.5 2.3 2.8 1.7 0.2 2.3 1.1 2.5 3.6 0.3 2.5 0.8 3.2 2.5 3.2 2.4 0 22.7 19.5 22.7 21.8 0 0.6 0.9 1.2 2 1.2 1.1 0 2.3 0.7 2.6 1.5 0.4 0.8 1 1.5 1.6 1.5 0.9 0 12.9 7.8 13.8 9 0.3 0.4 1.5 1 2.7 1.4 1.3 0.4 2.9 1.3 3.5 1.9 1.8 1.7 22.5 11.3 27.6 12.8 2.3 0.7 4.2 1.6 4.2 2.1 0 0.4 1.1 0.8 2.5 0.8 1.4 0 2.5 0.5 2.5 1 0 0.6 1.2 1 2.8 1 1.5 0 5.1 0.7 8.1 1.5 2.9 0.7 7.8 1.7 10.7 2.1 4.8 0.6 5.4 0.9 5.4 3 0 1.3 -0.1 2.4 -0.2 2.3 -0.2 -0.1 -4.1 -0.7 -8.7 -1.5z"/>
  <path d="M189.3 292.6 c-1 -1.3 -2.7 -4.2 -3.7 -6.4 -2.5 -5.5 -4.6 -6 -8.4 -2.2 -2.7 2.7 -3.7 3 -9.1 3 -6 0 -6 0 -12.1 -7.2 -5.6 -6.7 -6.4 -7.3 -10.6 -7.8 -4.5 -0.5 -4.6 -0.6 -6.4 -5.8 -1 -2.9 -3.7 -7.3 -5.9 -9.9 -2.3 -2.5 -4.1 -5.6 -4.1 -6.8 0 -1.3 -1.1 -4.3 -2.5 -6.6 -3.1 -5.5 -3.6 -15.5 -0.8 -16.6 0.9 -0.4 3.4 -2.4 5.6 -4.5 2.2 -2.1 4.5 -3.8 5.1 -3.8 1.3 0 4.4 3.8 8.3 10 1.2 1.9 2.3 5.2 2.3 7.2 0 4.1 2.7 6.8 6.7 6.8 3 0 5.7 5.2 5 9.7 -0.6 3.3 -0.5 3.3 3.3 3.3 2.1 0 4.4 0.2 5.2 0.5 0.8 0.3 1.8 -0.6 2.6 -2.2 0.7 -1.6 2 -3.9 3.1 -5.2 1.8 -2.4 1.8 -2.4 8 -0.2 3.3 1.1 7 2.1 8.2 2.1 1.1 0 2.9 0.5 3.9 1 1.2 0.7 2.6 0.7 3.7 0.1 1 -0.5 4.3 -1.4 7.3 -1.9 3 -0.6 6.5 -1.4 7.8 -1.8 1.8 -0.5 2.1 -0.3 1.6 1 -0.4 0.9 0.3 3 1.6 4.9 2.2 3.2 2.2 3.2 12.9 2.9 5.8 -0.2 11.7 -0.9 13.1 -1.6 2.3 -1 2.5 -1.8 2.7 -7.5 0.2 -5.3 0.6 -6.9 2.6 -8.9 2.4 -2.4 2.5 -2.4 4.3 -0.5 1.1 1.1 3.4 3 5.3 4.3 3.1 2.1 3.3 2.6 2.9 6.5 -0.6 4.6 0.6 6.8 4 7.9 2 0.7 2.3 1.3 2 4.9 -0.3 4.2 -0.3 4.2 -4.5 4.5 -2.6 0.2 -4.3 -0.1 -4.3 -0.7 0 -0.6 -1.1 -1.1 -2.4 -1.1 -1.8 0 -2.5 0.7 -3 3.2 -0.9 4.8 -2.3 5.8 -7.9 5.8 -4.9 0 -5.1 0.2 -11 6.5 -6 6.5 -6 6.5 -12.6 6.5 -5.8 0 -6.8 -0.3 -8.6 -2.5 -2 -2.5 -2 -2.5 -5.2 -0.5 -1.9 1.1 -3.5 3.1 -3.9 4.7 -1.2 5.9 -2.5 7.3 -6.5 7.3 -2.8 0 -4.2 -0.6 -5.6 -2.4z m6.7 -37.3 c-0.1 -2.4 -0.2 -2.6 -1.1 -1 -0.5 0.9 -0.7 2.2 -0.4 2.7 1 1.7 1.5 1.1 1.5 -1.7z"/>
  <path d="M29 281.5 c0 -0.8 -0.4 -1.5 -0.8 -1.5 -0.4 0 -0.8 -0.9 -0.9 -2 -0.1 -1.4 0.4 -2 1.8 -2 1.5 0 1.9 0.7 1.9 3.5 0 1.9 -0.4 3.5 -1 3.5 -0.5 0 -1 -0.7 -1 -1.5z"/>
  <path d="M25 271.5 c0 -0.8 -0.4 -1.5 -1 -1.5 -0.5 0 -0.7 -0.7 -0.4 -1.5 0.4 -0.8 0.2 -1.5 -0.3 -1.5 -0.5 0 -1 -1 -1 -2.2 -0.1 -1.3 -0.7 -2.4 -1.2 -2.6 -0.5 -0.2 -0.7 -1 -0.4 -1.8 0.3 -0.8 0.1 -1.4 -0.4 -1.4 -0.5 0 -0.9 -0.9 -0.9 -2 0 -1.2 0.7 -2 1.8 -2 1.2 0 1.9 1.1 2.4 3.8 0.4 2 1.1 4 1.7 4.3 1.4 1 2.2 9.9 0.8 9.9 -0.6 0 -1.1 -0.7 -1.1 -1.5z"/>
  <path d="M12.7 173.8 c-0.4 -1.2 -0.1 -2.5 0.5 -2.9 0.6 -0.4 0.9 -2 0.6 -3.6 -0.2 -1.9 0.2 -3.5 1.4 -4.8 2.7 -2.7 3.1 -1.4 2.2 6.2 -0.7 5 -1.3 6.9 -2.5 7.1 -1 0.2 -1.9 -0.6 -2.2 -2z"/>
  <path d="M26.8 126.3 c-0.3 -1.6 2.3 -5.3 3.7 -5.3 0.3 0 0.5 1.6 0.5 3.5 0 2.8 -0.4 3.5 -1.9 3.5 -1.1 0 -2.1 -0.8 -2.3 -1.7z"/>
  <path d="M41.3 97.3 c1.1 -0.3 1.6 -1.1 1.3 -1.9 -0.3 -0.8 -0.1 -1.4 0.5 -1.4 0.6 0 0.7 -0.5 0.4 -1.1 -0.4 -0.6 0.3 -1.3 1.5 -1.6 1.3 -0.4 1.9 -1.1 1.6 -2 -0.4 -0.9 0.2 -1.7 1.5 -2 1.2 -0.3 1.8 -1.1 1.5 -1.9 -0.3 -0.8 0.7 -2 2.4 -2.9 3 -1.6 3 -1.6 3 1.5 0 1.8 -0.6 3.3 -1.5 3.6 -0.8 0.4 -1.5 1.2 -1.5 2 0 0.7 -0.6 1.7 -1.3 2.1 -0.6 0.4 -1.8 2 -2.6 3.6 -1.2 2.2 -2.1 2.7 -5 2.6 -2 -0.1 -2.8 -0.3 -1.8 -0.6z"/>
  <path d="M121.6 41.4 c-0.3 -0.9 -0.6 -3.1 -0.6 -5 0 -1.9 -0.4 -3.4 -1 -3.4 -0.5 0 -1 -0.7 -1 -1.6 0 -1.4 -0.1 -1.4 -1.6 0 -0.9 1 -3.2 1.6 -5.7 1.6 -3.9 -0.1 -4.1 -0.2 -1.9 -1.3 1.2 -0.7 2 -1.6 1.6 -1.9 -0.3 -0.4 0.9 -1.1 2.8 -1.7 1.8 -0.5 6.2 -2.2 9.8 -3.7 8.2 -3.4 27.2 -8.6 28 -7.6 0.3 0.4 1.7 1.5 3.3 2.5 1.9 1.2 2.7 2.6 2.7 4.6 0 1.7 0.6 3.1 1.6 3.5 0.8 0.3 1.2 1 0.9 1.6 -0.9 1.4 0.8 1.3 2.3 -0.2 0.9 -0.9 1.2 -0.7 1.2 1 0 1.2 -0.9 2.6 -1.9 3.2 -2.5 1.3 -19.1 1.3 -22.5 0 -1.4 -0.5 -2.6 -0.6 -2.6 -0.1 0 0.4 -1.8 2.9 -4.1 5.5 -3.3 3.7 -4.7 4.6 -7.4 4.6 -2.1 0 -3.5 -0.6 -3.9 -1.6z m26.1 -21.8 c-0.6 -0.8 -1.5 -1.2 -1.9 -0.9 -0.4 0.2 -0.2 1 0.5 1.7 0.6 0.8 1.5 1.2 1.9 0.9 0.4 -0.2 0.2 -1 -0.5 -1.7z"/>
 </g>
 <g fill="#a8dae3">
  <path d="M264.2 217.8 c1.6 -5.3 -1 -9.9 -7 -12.7 -3.8 -1.8 -5.4 -3.3 -6.7 -6.2 -1.3 -2.9 -1.5 -4.2 -0.7 -5.2 0.6 -0.7 0.8 -2.3 0.5 -3.6 -0.3 -1.4 -0.1 -2.6 0.7 -3.1 0.9 -0.6 1 -1.2 0.1 -2.6 -1 -1.8 -1 -1.8 -1.1 0.1 0 1.8 -0.2 1.7 -1.4 -0.5 -0.8 -1.6 -0.9 -2.9 -0.3 -3.7 0.7 -1 0.3 -1.3 -1.4 -1.3 -4.6 0 -5.4 -1.3 -4 -6.3 0.7 -2.5 1 -5.4 0.7 -6.5 -0.7 -1.9 -7.8 -6.2 -10.4 -6.2 -0.6 0 -2.3 -1.8 -3.7 -4 -2.6 -4.1 -7.4 -7.7 -13.9 -10.4 -2.1 -0.9 -4.9 -2.4 -6.4 -3.5 -1.5 -1.1 -4.6 -2.2 -6.7 -2.6 -2.2 -0.4 -5 -1.6 -6.2 -2.7 -1.7 -1.6 -2.5 -1.8 -4.2 -0.9 -1.9 1.1 -2.1 0.9 -2.1 -2.4 0 -3.4 0.1 -3.5 3.6 -3.5 2.4 0 4.6 0.8 6.6 2.5 2.9 2.5 2.9 2.5 8.5 -0.5 8.3 -4.4 12.3 -4.1 18.4 1.4 2.8 2.5 8.3 6 12.3 7.9 5.8 2.8 8.6 5 13.7 10.7 3.5 3.9 8.3 8.3 10.6 9.7 3.7 2.1 4.3 3 4.3 5.7 0 2.3 1.1 4.5 3.5 7.3 3.5 4.1 3.5 4.2 3.5 13.7 0 8 -0.3 9.9 -1.8 11.4 -2.7 2.7 -3.9 7 -3.4 12.1 0.5 5.3 -1.3 9.1 -4.4 9.1 -2 0 -2.1 -0.3 -1.2 -3.2z"/>
  <path d="M373.6 190.3 c-0.4 -5.4 -1.3 -12.3 -2 -15.3 -1.2 -5.2 -1.4 -5.5 -4.7 -6 -2.3 -0.3 -3.7 -1.2 -4.4 -2.7 -0.5 -1.3 -1.5 -2.3 -2.2 -2.3 -0.8 0 -1.3 -1.5 -1.3 -4.1 0 -4.1 0 -4.1 4.5 -3.7 4.6 0.3 4.6 0.3 3.9 -2.7 -1.1 -5.2 -6.6 -19.5 -7.9 -20.9 -0.7 -0.7 -2.3 -4.3 -3.4 -8 -1.2 -3.7 -2.4 -7.2 -2.8 -7.8 -0.5 -0.6 -2.6 -4.5 -4.8 -8.7 -4 -7.6 -4 -7.6 -9 -8.1 -5 -0.5 -5 -0.5 -5.6 -7.2 -0.4 -5 -1.2 -7.7 -3.3 -10.6 -2.7 -4 -34.9 -37.2 -36 -37.2 -0.7 0 -18.9 -11.2 -19.6 -12 -1.2 -1.5 -18.2 -8.1 -19.5 -7.6 -0.7 0.2 -1.5 1.7 -1.7 3.3 -0.2 2.2 -1.3 3.3 -4.8 5 -7 3.4 -13.7 3.1 -22.6 -1.2 -4.2 -2.1 -8.8 -3.5 -11.1 -3.5 -4.6 -0.1 -10.7 -2.2 -13.3 -4.5 -1.1 -1 -2 -3.4 -2.2 -5.9 -0.4 -5.5 -3.5 -6.2 -6.2 -1.4 -4.5 7.9 -8.7 10.6 -18 11.5 -9 0.8 -10.1 0 -10.4 -8.1 -0.3 -8 -0.4 -7.9 15.5 -9.7 13.9 -1.5 37.6 -0.5 50.8 2.1 26.4 5.2 53.5 18 72.6 34.3 7.2 6 26.3 26.5 34.5 36.8 9.1 11.5 19.2 28.9 23.8 41.2 1.3 3.4 3.8 10 5.5 14.5 4.1 10.8 8.8 34.7 9.6 49 0.6 10.6 0.6 11.2 -1.3 11.2 -1.7 0 -2 -1 -2.6 -9.7z"/>
 </g>
 <g fill="#c3d4b3">
  <path d="M326.5 299.5 c0.6 -7.9 0.5 -9.9 -0.9 -12 -0.9 -1.3 -1.6 -3.4 -1.6 -4.6 0 -2.6 4.1 -13.6 7.1 -19.4 1.2 -2.2 2.8 -5.2 3.6 -6.7 0.8 -1.6 1.9 -2.8 2.4 -2.8 0.5 0 0.6 -2.3 0.3 -5.5 -0.6 -5.1 -0.5 -5.5 1.7 -6.4 1.3 -0.5 4.3 -3.1 6.5 -5.8 2.3 -2.7 5.8 -6 7.8 -7.3 2.6 -1.8 4.7 -4.9 8 -11.6 3.2 -6.6 5.5 -9.9 8.5 -12.3 3.5 -2.8 4.1 -3.8 4.1 -7.2 0 -5.2 2.6 -5.4 3.6 -0.3 0.9 4.8 -0.3 24.5 -2.1 34.8 -1.8 10.1 -8.1 31.1 -13 43.3 -3.4 8.5 -14.8 29.3 -16.1 29.3 -0.3 0 -1.8 -0.7 -3.4 -1.6 -3.7 -2.3 -9.4 -1.1 -13.2 2.7 -1.6 1.6 -3.2 2.9 -3.5 2.9 -0.3 0 -0.2 -4.3 0.2 -9.5z m20.3 -43.4 c-0.7 -1.2 -1.9 -2.1 -2.7 -2.1 -1 0 -0.7 0.8 0.9 2.5 2.7 2.9 3.7 2.7 1.8 -0.4z"/>
  <path d="M258 264.5 c0 -0.9 -0.8 -1.9 -1.7 -2.2 -2 -0.8 -5.6 -4.3 -4.4 -4.3 0.5 0 1.4 0.7 2.1 1.5 0.7 0.8 2.1 1.5 3 1.5 1 0 2 0.5 2.2 1.2 0.4 1.2 2.8 0.3 2.8 -1.2 0 -0.5 -1 -1.2 -2.2 -1.5 -2.2 -0.8 -6.8 -5.2 -6.8 -6.7 0 -0.5 0.7 -1.9 1.5 -3.2 1.4 -2.1 1.4 -2.4 0 -3.6 -1.2 -1 -1.5 -1 -1.5 0 0 0.8 -0.3 1 -0.7 0.6 -0.5 -0.4 -0.8 -1.1 -0.8 -1.5 0 -0.4 -1.3 -1.9 -2.8 -3.4 -2.9 -2.6 -2.9 -2.6 -0.8 -5.6 2.6 -3.6 7.8 -8.1 9.5 -8.1 1.6 0 4.4 -4 7.6 -10.8 2.4 -4.9 2.7 -5.2 5.5 -4.6 1.7 0.4 3 0.7 3 0.8 0 0 1.3 2.7 2.8 5.9 3 6.4 3.5 12.8 1.2 14.7 -0.9 0.8 -1.5 3 -1.5 5.9 0 6.5 -3.6 16.8 -7.7 21.9 -2.8 3.5 -4 4.2 -6.9 4.2 -2.4 0 -3.4 -0.5 -3.4 -1.5z"/>
  <path d="M160 31.6 c0 -0.6 6 -6.6 6.6 -6.6 0.2 0 0.4 1.6 0.4 3.5 0 3.3 -0.2 3.5 -3.5 3.5 -1.9 0 -3.5 -0.2 -3.5 -0.4z"/>
 </g>
 <g fill="#f1d26c">
  <path d="M181.7 392.4 c-0.5 -0.6 -7.3 -1.3 -12.9 -1.3 -1.5 -0.1 -3 -0.5 -3.3 -1.1 -0.3 -0.6 -1.7 -0.7 -3 -0.4 -1.2 0.3 -2.6 0.1 -2.9 -0.5 -0.4 -0.5 -1.3 -0.8 -2 -0.5 -0.8 0.3 -1.7 0 -2.1 -0.5 -0.3 -0.6 -1.1 -0.9 -1.6 -0.5 -0.5 0.3 -1.6 0 -2.4 -0.6 -0.8 -0.7 -1.5 -1 -1.5 -0.6 0 0.5 -1.9 -0.1 -9.5 -3 -1.1 -0.4 -2.3 -0.8 -2.7 -0.9 -0.5 -0.2 -1 -0.4 -1.3 -0.5 -0.3 -0.1 -0.8 -0.4 -1.2 -0.5 -16.1 -4.8 -47.7 -24.2 -60.3 -36.9 -7.4 -7.6 -7.4 -7.6 -4 -7.6 2.7 0 4.4 0.9 8.1 4.6 4.7 4.6 4.7 4.6 4.2 0 -0.6 -4.6 -0.6 -4.6 4.6 -4.6 6.4 0 8.2 0.9 14.9 7.3 3.8 3.8 5.2 5.9 5.2 7.9 0 2.8 0 2.8 10.8 2.8 9.9 0 11.4 0.3 20.2 3.6 11.7 4.4 25.1 10.3 26.8 11.6 0.6 0.6 1.2 2.6 1.2 4.4 0 2.7 -0.6 3.6 -2.8 4.8 -6.7 3.5 -6 4.2 6 6 6.2 1 12.8 1.9 14.6 2.2 2.6 0.4 3.2 0.9 3.2 2.9 0 2.1 -0.5 2.5 -2.8 2.5 -1.6 0 -3.1 -0.3 -3.5 -0.6z"/>
  <path d="M199.2 390.3 c0.3 -2.4 0.8 -2.8 4.1 -3.1 2.8 -0.2 3.7 -0.8 3.7 -2.2 0 -1 -0.4 -2.2 -1 -2.5 -0.5 -0.3 -1 -2.2 -1 -4.1 0 -2.8 0.7 -3.9 4.2 -6.4 2.5 -1.9 5.3 -3 7.3 -3 4.5 0 6 -2.1 4.6 -6.1 -1.9 -5.5 -1.4 -8.8 1.5 -9.9 1.4 -0.6 3.6 -1 5 -1 1.3 0 3.2 -0.9 4.2 -2.1 2.1 -2.5 6.5 -4.9 9 -4.9 1.1 0 4.2 -2 7 -4.5 2.7 -2.5 5.6 -4.5 6.4 -4.5 1 0 1.3 -1.1 1 -3.8 -0.5 -5 3.5 -10.2 7.9 -10.2 1.6 0 2.9 -0.4 2.9 -0.8 0 -0.5 0.9 -1.8 2 -3 1.7 -1.7 3.2 -2.2 7.5 -2.2 5 0 5.6 0.2 6.9 2.8 1.5 2.9 1.5 2.9 7.6 1.6 3.4 -0.7 6.4 -1.4 6.6 -1.7 0.2 -0.2 1.7 -2.8 3.2 -5.8 3.1 -6.1 4.5 -6.8 17.2 -8.9 4.1 -0.7 8.7 -1.5 10.2 -1.7 2.7 -0.5 2.7 -0.5 1.6 3.3 -1.3 5 -4.2 10.7 -6.3 12.4 -0.8 0.7 -4.1 1.4 -7.3 1.5 -5.3 0.1 -11.2 2.5 -11.2 4.5 0 0.8 6 -0.2 7.8 -1.4 1.8 -1.1 2.5 1.5 0.8 3.3 -2 2.2 -2 3.1 -0.1 3.1 2.8 0 1.5 1.8 -2.7 3.8 -2.4 1.1 -5.1 2.9 -6.1 4 -1.1 1.1 -3.7 2.4 -6 2.8 -3.3 0.5 -5.3 1.8 -9.4 6.2 -3.7 3.9 -5.3 6.3 -5.3 8.2 0 1.5 -0.6 3.2 -1.3 3.8 -0.6 0.6 -6 1.3 -11.9 1.6 -12.2 0.6 -26.4 4.7 -33.2 9.4 -3.7 2.6 -3.8 2.7 -1.6 3 1.4 0.2 3.7 1.5 5.3 2.8 4.6 3.9 7.2 3.2 13.7 -3.6 3.1 -3.3 6.5 -6 7.4 -6 1.1 0 1.4 0.5 1 1.2 -0.5 0.8 -0.2 0.9 0.9 0.5 1.7 -0.6 8.6 2.2 8.7 3.5 0.1 2.3 -20.1 10.7 -37 15.4 -7.4 2.1 -13.6 4.1 -13.8 4.5 -0.2 0.5 -1.7 0.6 -3.3 0.2 -1.9 -0.3 -2.9 -0.1 -2.9 0.6 0 0.9 -1.3 1 -4.5 0.5 -3 -0.4 -4.5 -0.3 -4.5 0.5 0 0.6 -1.6 1.1 -3.6 1.1 -3.3 0 -3.5 -0.2 -3.2 -2.7z"/>
  <path d="M251.6 302.1 c-0.4 -0.5 -2.6 -1.6 -5.1 -2.5 -4.1 -1.3 -5 -1.3 -8.8 0 -2.3 0.8 -6.7 1.7 -9.8 2.1 -5.3 0.5 -5.8 0.4 -7 -1.8 -1.8 -3.5 -3.5 -4.9 -5.9 -4.9 -1.3 0 -2.4 -0.8 -2.7 -1.8 -0.6 -2.6 -7.9 -1.7 -11.6 1.4 -4.1 3.5 -8.8 3.2 -12 -0.6 -2.2 -2.6 -3.3 -3 -7.4 -3 -2.8 0 -5.8 -0.6 -6.9 -1.5 -1 -0.8 -4 -1.5 -6.6 -1.5 -4.7 0 -4.8 -0.1 -4.8 -3.2 0 -2.5 0.3 -2.9 1.2 -2 2.4 2.4 6.9 1.4 10.4 -2.3 3.1 -3.4 3.5 -3.5 7.4 -2.6 4.9 1.1 4.2 0.4 7.3 6.7 3.4 6.8 5.3 8.3 7.2 5.8 0.8 -1 1.5 -2.7 1.5 -3.7 0 -3.4 2 -5.7 7.1 -8.3 5.5 -2.7 5.7 -2.7 9 2.9 0.6 1.1 2.2 1.7 4.8 1.7 3.4 0 4.4 -0.7 9.8 -6.5 5.9 -6.3 6.1 -6.5 11 -6.5 5.7 0 6.6 -0.7 8.3 -6.8 1.3 -4.9 3.3 -6.2 5.9 -3.8 1 0.9 2.5 1.6 3.3 1.6 0.9 0 1.8 0.6 2.1 1.3 0.3 0.9 0.9 0.9 2.6 -0.1 1.9 -1.1 2.1 -1 2.1 1.6 0 1.5 -0.6 3.7 -1.4 4.8 -1.3 1.7 -1.2 2.2 1.1 4.6 2.9 3 2.8 4.5 -0.5 16.8 -3.3 12.4 -3.7 13 -7.6 13 -1.9 0 -3.7 -0.4 -4 -0.9z"/>
 </g>
 <g fill="#5adcf9">
  <path d="M272 182.9 c0 -0.6 -1.6 -2.9 -3.5 -5.2 -2.4 -2.8 -3.5 -5 -3.5 -7.3 0 -2.7 -0.6 -3.6 -4.3 -5.7 -2.3 -1.4 -7.1 -5.8 -10.7 -9.8 -4.7 -5.2 -7.9 -7.9 -12 -9.7 -6.4 -3 -12 -6.4 -12 -7.4 0 -0.5 1.6 -0.8 3.5 -0.8 2.4 0 3.5 0.5 3.5 1.5 0 0.9 0.9 1.5 2.5 1.5 5.7 0 17.1 7.8 22.6 15.5 2 2.7 4.6 5 7 5.9 2.2 0.9 3.9 2 3.9 2.5 0 0.5 1.1 1.2 2.5 1.5 1.4 0.4 2.5 1.3 2.5 2.1 0 0.8 0.7 1.5 1.5 1.5 1 0 1.5 1.1 1.5 3.5 0 1.9 -0.4 3.5 -1 3.5 -0.5 0 -1 1.8 -1 4 0 2.9 -0.4 4 -1.5 4 -0.8 0 -1.5 -0.5 -1.5 -1.1z"/>
  <path d="M335.3 131.5 c-9.3 -2 -10 -2.6 -10.8 -9.2 -0.6 -4.6 -1.4 -6.6 -4.1 -9.5 -2 -2.2 -3.4 -4.9 -3.4 -6.3 0 -2.1 -0.5 -2.5 -2.8 -2.5 -2 0 -4.2 -1.5 -8.4 -5.7 -5.6 -5.7 -5.7 -5.9 -6 -12.3 -0.3 -6.5 -0.3 -6.5 -5.1 -6.8 -5.4 -0.4 -6.7 -2.1 -6.7 -9.3 0 -3 -0.7 -4.7 -3.5 -7.7 -3.3 -3.8 -3.5 -3.8 -9.5 -3.4 -5.3 0.4 -6 0.2 -6.1 -1.4 0 -1.5 -0.2 -1.5 -0.6 -0.4 -0.9 2.2 -2.4 3 -5.8 3 -3.7 0 -13.1 -3.3 -15.5 -5.5 -0.9 -0.8 -2.1 -1.5 -2.6 -1.5 -0.5 0 -2.2 -1.1 -3.8 -2.5 -1.6 -1.4 -3.3 -2.5 -3.8 -2.5 -0.4 0 -0.8 -3.4 -0.8 -7.5 0 -7.3 0.1 -7.5 2.4 -7.5 3.2 0 11.5 -3.6 12 -5.2 0.3 -0.7 0.7 -2.5 1 -4 0.5 -2.2 1.2 -2.8 3.4 -2.8 4.7 0 18.3 6.2 31.7 14.5 11.9 7.2 14.5 9.4 29.7 24.8 9.1 9.3 16.7 17 16.7 17.3 0 0.2 0.8 1.6 1.8 3 0.9 1.4 1.9 5.6 2.2 9.2 0.6 6.7 0.6 6.7 4.5 6.5 3.7 -0.3 9.3 2.6 7.9 4.1 -0.3 0.3 -0.1 0.6 0.6 0.6 0.7 0 0.9 0.5 0.6 1 -0.3 0.6 -0.1 1 0.5 1 0.6 0 0.8 0.5 0.5 1 -0.3 0.6 -0.1 1 0.5 1 0.6 0 0.8 0.5 0.5 1 -0.3 0.6 -0.1 1 0.5 1 0.6 0 0.8 0.5 0.5 1 -0.3 0.6 -0.2 1 0.4 1 0.6 0 0.8 0.6 0.5 1.4 -0.3 0.8 0.4 2 1.5 2.8 1.2 0.8 1.8 1.8 1.4 2.1 -0.3 0.4 -0.1 0.7 0.6 0.7 0.7 0 0.9 0.5 0.6 1 -0.3 0.6 0 1 0.7 1 0.9 0 0.9 0.3 -0.2 1 -1.2 0.8 -1.2 1 0.5 1.1 1.1 0 1.4 0.3 0.8 0.6 -1.9 0.7 -1.6 2.3 0.5 2.4 1 0 1.2 0.3 0.5 0.6 -1.9 0.7 -1.6 2.3 0.5 2.4 1 0 1.2 0.3 0.5 0.6 -1.8 0.7 -1.6 2.3 0.3 2.3 0.8 0 1.2 0.5 0.9 1 -0.3 0.6 -0.1 1 0.5 1 0.6 0 0.8 0.5 0.5 1 -0.9 1.5 -21.8 1.1 -29.2 -0.5z"/>
 </g>
 <g fill="#8fc3bd">
  <path d="M335.9 247.3 c-0.8 -0.9 -1.5 -4.7 -1.7 -9.2 -0.3 -6.3 0 -8.6 2 -13.1 2.2 -5 2.3 -6.7 2.1 -18.7 -0.1 -7.3 -0.7 -17 -1.3 -21.5 -0.5 -4.5 -1 -10.6 -1 -13.5 0 -5.3 0 -5.3 3.3 -5.3 3.4 0 7.7 3.3 7.7 5.8 0 0.7 0.5 1.2 1 1.2 1.5 0 1.2 -1.1 -1 -4.8 -2 -3.3 -2.7 -10.6 -1.1 -11.6 0.5 -0.3 1.4 -2.5 2 -4.9 1 -4.3 1.2 -4.4 5.7 -5.1 7.6 -1 9.2 -0.8 9.9 1.4 0.3 1.1 1.1 2 1.6 2 0.5 0 0.9 -0.9 0.9 -2 0 -1.1 0.6 -2 1.3 -2 2.2 0 3.8 1.6 3.1 3.3 -0.3 1 -0.1 1.7 0.6 1.7 0.7 0 0.9 0.8 0.5 2 -0.4 1.1 -0.2 2 0.4 2 0.6 0 0.8 1.2 0.5 2.8 -0.3 1.5 0.4 6.8 1.6 11.7 1.4 5.6 2.4 13.9 2.7 22.1 0.6 13 0.6 13 -3.7 16.4 -3.1 2.5 -5.4 5.7 -8.6 12.4 -3.3 6.7 -5.4 9.8 -8 11.6 -2 1.3 -5.5 4.6 -7.8 7.3 -2.2 2.7 -5.1 5.3 -6.3 5.8 -1.5 0.5 -2.1 1.4 -1.7 2.4 0.8 2.1 -2.9 2 -4.7 -0.2z m32.4 -85.4 c-0.7 -2.4 -3.3 -2.5 -3.3 -0.1 0 2.4 2.1 4.6 3.1 3.1 0.3 -0.6 0.4 -2 0.2 -3z"/>
  <path d="M275 230.5 c1 -1.3 0.8 -2.7 -1.6 -8 -1.7 -3.8 -3.5 -6.5 -4.4 -6.5 -1 0 -2.1 -1.7 -2.8 -4.3 -1.1 -3.6 -1 -4.8 0.3 -8.1 0.9 -2.2 1.4 -4.8 1.2 -5.8 -0.4 -1.5 -0.3 -1.7 0.8 -0.8 1.9 1.6 3.5 -1.7 3.5 -7.4 0 -3.9 0.3 -4.6 1.9 -4.6 1.7 0 2 0.8 2.3 4.8 0.3 4.7 0.3 4.7 5.3 5.2 2.8 0.3 6.5 1.2 8.3 2 3.1 1.5 3.2 1.6 3.2 8 0 7.3 -2.2 18 -4.7 22.6 -1.3 2.6 -2.4 3.3 -6.1 3.8 -7.4 1 -8.7 0.8 -7.2 -0.9z"/>
  <path d="M160.6 40.4 c-1 -7.7 -0.8 -10.2 1.2 -10.8 2.1 -0.7 5.4 -6.3 4.1 -7.1 -0.5 -0.4 -0.3 -1.2 0.5 -2.1 2 -2 2.4 -1.8 1.9 1 -0.7 3.2 2.5 4.9 7.5 4 4.9 -0.9 7 -2 11 -5.8 3.3 -3.1 3.3 -3.1 3 0.9 -0.3 3.6 -0.7 4.2 -4.7 6.2 -2.4 1.2 -6.8 2.7 -9.7 3.3 -5.4 1.1 -5.4 1.1 -5.4 6.1 0 6.8 -1.3 8.9 -5.4 8.9 -3.2 0 -3.4 -0.2 -4 -4.6z"/>
  <path d="M174 19.3 c1.4 -0.3 2.9 -0.9 3.5 -1.4 0.5 -0.5 1.3 -0.9 1.9 -0.9 0.5 0 0.1 0.7 -1 1.5 -1 0.8 -3 1.4 -4.4 1.3 -2.5 -0.1 -2.5 -0.1 0 -0.5z"/>
  <path d="M169 15.6 c0 -0.8 -0.6 -1.7 -1.2 -2 -0.7 -0.3 0.6 -0.4 2.9 -0.2 2.2 0.2 4.6 -0.1 5.2 -0.7 0.6 -0.6 1.1 -0.8 1.1 -0.4 0 0.8 -6 4.7 -7.2 4.7 -0.5 0 -0.8 -0.6 -0.8 -1.4z"/>
 </g>
 <g fill="#d99892">
  <path d="M124.8 241.8 c-0.6 -1.3 -1.5 -5.2 -1.9 -8.6 -0.4 -3.8 -1.3 -7.1 -2.3 -8 -1.5 -1.5 -1.6 -1.4 -1.7 0.8 -0.1 1.4 -0.1 4.4 0.1 6.8 0.2 4.2 0.2 4.2 -3.3 4.2 -2.9 0 -3.7 -0.5 -4.7 -3 -0.7 -1.8 -1.1 -5.3 -0.8 -8.6 0.5 -5.5 0.5 -5.5 -3.9 -8 -2.7 -1.6 -4.3 -3.3 -4.3 -4.5 0 -1.2 -0.7 -1.9 -2 -1.9 -1.9 0 -2.1 -0.5 -1.8 -6.7 0.3 -6.8 0.3 -6.8 4.1 -7.1 3.5 -0.3 3.7 -0.1 3.7 2.4 0 2.8 0 2.8 2.9 -1.2 2.5 -3.4 3.1 -5.2 3.7 -12.8 0.6 -7.8 1 -9 3.5 -11.6 2 -1.9 2.9 -3.9 2.9 -5.9 0 -2.6 1.7 -4.8 10.5 -13.5 9.2 -9.2 11.1 -10.7 16.2 -12.2 3.2 -1 6.5 -2.3 7.3 -3 0.8 -0.6 3.4 -1.5 5.8 -1.9 3 -0.5 4.2 -1.1 4.2 -2.4 0 -3 2.2 -4.1 8.2 -4.1 5.5 0 5.8 0.1 5.8 2.4 0 2.3 -0.2 2.4 -3.6 1.4 -3.4 -0.9 -3.9 -0.7 -7 2.3 -3 2.9 -3.2 3.4 -1.9 4.9 2.1 2.3 1.9 3.4 -1 6.1 -1.4 1.3 -3.4 4.3 -4.5 6.7 -1.8 4 -2.1 4.2 -6.4 4.2 -3.8 0 -4.8 0.4 -6.2 2.6 -1 1.4 -1.6 3.9 -1.5 5.5 1 13 -1.9 22.9 -6.7 22.9 -1 0 -1.2 0.6 -0.7 1.8 1.8 4.2 1.5 6 -1.9 11.1 -3.6 5.3 -3.6 5.3 -1.2 8.4 1.4 1.8 3 4.5 3.6 6.1 1 2.7 0.8 3.2 -3.3 7.1 -2.4 2.3 -5.1 4.5 -6 4.8 -2.4 0.9 -2.1 5.5 0.8 10.5 2.4 4.2 2.4 4.2 -0.5 4.2 -2 0 -3.3 -0.7 -4.2 -2.2z"/>
  <path d="M36.4 106.3 c0 -0.9 1.2 -2.7 2.4 -4 1.3 -1.3 2.1 -3 1.8 -3.8 -0.3 -0.8 0 -1.5 0.6 -1.5 0.6 0 1.7 -0.8 2.4 -1.7 1.2 -1.6 1.3 -1.4 1.4 2 0 3 -0.3 3.7 -2 3.7 -1.6 0 -2 0.7 -2 3.5 0 3 -0.3 3.5 -2.4 3.5 -1.6 0 -2.3 -0.5 -2.2 -1.7z"/>
  <path d="M51.1 84.1 c0.7 -1 2 -2.3 3 -3 1.7 -1 1.9 -0.8 1.9 1.9 0 2.7 -0.3 3 -3 3 -2.7 0 -2.9 -0.2 -1.9 -1.9z"/>
  <path d="M59.4 74.2 c0 -1 1.1 -2.3 2.3 -2.9 2.1 -1 2.3 -0.9 2.3 1.8 0 2.4 -0.4 2.9 -2.3 2.9 -1.5 0 -2.3 -0.6 -2.3 -1.8z"/>
  <path d="M67.5 65 c0.1 -1.2 1.3 -2.7 2.9 -3.5 2.7 -1.4 2.7 -1.4 2.4 1.8 -0.2 2.6 -0.8 3.3 -2.9 3.5 -2.1 0.2 -2.5 -0.1 -2.4 -1.8z"/>
  <path d="M111.1 59.4 c-2.9 -0.8 -5.7 -1.7 -6.2 -2 -0.5 -0.3 -0.9 -4.7 -1 -9.7 0 -5.1 -0.3 -8.6 -0.6 -7.9 -0.2 0.6 -1.1 1.2 -1.9 1.2 -0.8 0 -1.4 0.5 -1.4 1 0 0.6 -1.9 1 -4.2 1 -3.5 -0.1 -3.9 -0.3 -2.5 -1.1 0.9 -0.6 1.5 -1.4 1.2 -2 -0.4 -0.5 0.3 -0.9 1.5 -0.9 1.2 0 1.8 -0.4 1.5 -1 -0.3 -0.5 0.3 -1 1.5 -1 1.2 0 1.8 -0.4 1.5 -1 -0.3 -0.5 0.1 -1 1 -1 0.9 0 5.8 -2.2 10.8 -4.8 9.9 -5.2 18.2 -8.4 19.2 -7.4 0.3 0.4 0.9 0.2 1.3 -0.4 0.4 -0.6 1.8 -1.5 3 -1.9 2 -0.6 2.3 -0.4 2 1.2 -0.2 1 -0.9 1.7 -1.5 1.6 -0.7 -0.1 -0.9 0.7 -0.5 2 0.5 2.1 0.5 2.1 -1.2 0.4 -1.8 -1.7 -3.6 -1.5 -3.6 0.5 0 0.5 0.7 0.8 1.5 0.4 2.4 -0.9 1.8 -0.1 -3.6 5.3 -3.8 3.8 -4.8 5.4 -4.1 6.6 0.7 1.4 1.4 1 4.3 -2.2 1.9 -2.1 4.1 -4.9 5 -6.3 1.6 -2.5 1.6 -2.5 6.5 -0.7 5.3 1.9 14 2.2 19.2 0.8 3 -0.9 3.2 -0.8 3.2 1.4 0 1.3 -0.8 2.8 -1.7 3.4 -1.4 0.7 -1.8 2.3 -1.8 6.8 0 5.8 0 5.8 -3.5 6.1 -1.9 0.2 -4.6 1.4 -6 2.7 -10.2 9.4 -24.8 12.7 -38.9 8.9z"/>
  <path d="M79.3 52.5 c0.7 -1.4 1.9 -2.5 2.8 -2.5 0.8 0 2 -0.5 2.7 -1.2 0.9 -0.9 1.2 -0.5 1.2 1.9 0 3.2 -1.4 4.3 -5.5 4.3 -2.1 0 -2.2 -0.2 -1.2 -2.5z"/>
 </g>
 <g fill="#fd926f">
  <path d="M142.1 283.4 c-1.7 -1.4 -3.9 -3.9 -4.8 -5.5 -1.1 -1.8 -2.6 -2.9 -4 -2.9 -1.2 0 -3 -1.1 -4 -2.6 -1 -1.4 -2.8 -3.8 -4.1 -5.4 -1.2 -1.6 -4.3 -6.6 -6.9 -11.2 -3.5 -6.2 -4.8 -9.9 -5.4 -14.8 -0.5 -3.6 -1.1 -8.2 -1.5 -10.3 -0.7 -3.9 1.4 -12.7 2.9 -12.7 0.5 0 0.6 1.2 0.3 2.6 -1.6 6.3 -1.7 8.3 -0.6 10.1 1.1 1.7 1.1 1.7 0.6 0 -0.8 -2.6 2.3 -11.4 4.2 -12.2 3.1 -1.2 7.2 6 7.2 12.6 0 4.2 1.8 8.7 4.4 10.8 0.9 0.8 1.6 2.6 1.6 4.1 0 1.8 1.4 4.3 4.1 7.3 2.2 2.6 4.9 7 5.9 9.9 1.8 5.2 1.9 5.3 6.1 5.6 2.4 0.2 4.9 0.8 5.6 1.4 2.2 1.8 1.5 3.8 -1.3 3.8 -2.3 0 -2.5 0.3 -1.9 2.3 0.4 1.2 0.9 3.9 1.2 6 0.5 3.7 0.5 3.7 -3 3.7 -2.4 0 -4.6 -0.9 -6.6 -2.6z"/>
  <path d="M11.6 208.8 c-0.8 -3 -0.8 -16.6 0 -19.5 0.4 -1.3 1.3 -2.3 2 -2.3 1.1 0 1.4 2.4 1.4 12 0 9.6 -0.3 12 -1.4 12 -0.7 0 -1.6 -1 -2 -2.2z"/>
  <path d="M12 183.4 c0 -3.2 2.1 -16.2 3.7 -22 1.7 -6.7 3.6 -8.4 9.4 -8.4 3.6 0 4.7 2.4 5.6 11.7 0.7 7 -0.4 9.3 -4.4 9.3 -2.6 0 -8.4 2.6 -9.5 4.4 -0.4 0.6 -0.8 2.3 -0.8 3.9 0 2 -0.5 2.7 -2 2.7 -1.1 0 -2 -0.7 -2 -1.6z"/>
  <path d="M25 133.7 c0.3 -4.5 11.9 -28.6 18.7 -38.9 6.3 -9.4 20.1 -25.6 31.8 -37.3 10.9 -10.9 28.6 -24.2 30.5 -23 0.6 0.3 1 4.8 1 10 0 7.5 0.3 9.6 1.6 10.3 1.3 0.7 0.8 1.5 -2.5 4.5 -3.4 3.1 -4.9 3.7 -8.4 3.7 -4.8 0 -8.7 3 -8.7 6.6 0 1 -0.3 3 -0.7 4.3 -0.6 2.2 -0.9 2.3 -6 1.7 -3 -0.3 -5.9 -0.7 -6.5 -0.9 -0.7 -0.1 -1.5 1.5 -1.8 3.8 -0.8 5.6 -10 18.1 -14 19 -3.4 0.8 -4.4 1.8 -6 6.8 -1.1 3.4 -0.9 4.5 1.4 10.2 1.4 3.6 2.6 8.1 2.6 10.1 0 3.3 -0.3 3.7 -5.2 5.8 -4.1 1.8 -7.9 2.4 -16.5 2.9 -6.2 0.3 -11.3 0.5 -11.3 0.4z"/>
 </g>
 <g fill="#fdd023">
  <path d="M185 392.1 c0 -1.3 -4.3 -2.2 -5.4 -1.1 -1.5 1.5 -5.3 1.2 -6 -0.5 -0.6 -1.7 -4.6 -2.1 -4.6 -0.5 0 0.6 -0.4 1 -1 1 -0.5 0 -1 -0.7 -1 -1.5 0 -1.8 -4.6 -2.1 -5.3 -0.2 -0.3 0.7 -0.6 0.5 -0.6 -0.5 -0.1 -1 -0.9 -1.8 -1.9 -1.8 -1 0 -4 -0.7 -6.6 -1.6 -4.9 -1.7 -4.9 -1.7 -1.6 -3 1.8 -0.8 5.4 -2.8 8.1 -4.6 4 -2.5 4.7 -3.4 3.7 -4.4 -1.5 -1.4 -13.6 -6.7 -26.2 -11.6 -9.3 -3.5 -12 -5.8 -6.9 -5.8 4.3 0 7.3 1.1 7.3 2.6 0 0.8 1 1.4 2.3 1.4 1.2 0 3.9 0.3 6 0.6 3.6 0.6 3.7 0.6 3.7 -2.4 0 -5.8 0.6 -6.2 8.4 -6.1 11 0.1 17.4 1.3 19.8 3.7 2.1 2.1 2.1 2.1 6.9 -0.4 6.2 -3.1 12.1 -3.1 19.1 0 5.4 2.4 5.4 2.4 7.1 -0.6 0.9 -1.6 1.7 -3.8 1.7 -4.8 0 -1 2.3 -3.7 5 -6 4.6 -3.9 5.5 -4.2 9.2 -3.7 2.4 0.3 5.1 1.6 6.7 3.1 1.9 1.8 3 2.3 4.1 1.6 0.8 -0.5 2.5 -1 3.8 -1 2.3 0 3 -1.4 1.2 -2.5 -0.5 -0.3 -1 -2.6 -1 -5.1 0 -4.4 0 -4.4 6.4 -4.4 4.8 0 6.5 -0.4 7 -1.5 0.3 -0.8 1.5 -1.5 2.7 -1.5 1.5 0 1.9 0.5 1.5 1.5 -0.3 0.8 -0.2 1.5 0.2 1.5 0.4 0 0.8 1.3 0.9 2.9 0.2 2.3 -0.3 3.2 -2 3.7 -1.2 0.4 -4.4 2.6 -7.1 5 -2.6 2.4 -5.7 4.4 -6.8 4.4 -2.5 0 -6.9 2.4 -9 4.9 -1 1.2 -2.9 2.1 -4.2 2.1 -3.4 0 -7.8 1.8 -7.1 2.9 0.3 0.5 1 3.3 1.5 6.2 0.9 4.5 0.8 5.4 -0.7 6.5 -1 0.7 -3.2 1.4 -4.9 1.4 -1.8 0 -4.8 1.2 -7.3 3 -3.2 2.4 -3.9 3.4 -3.2 4.8 2.7 5.2 3.3 7.1 2.7 8.9 -0.5 1.5 -1.3 1.8 -4.6 1.5 -3 -0.3 -4.1 0 -4.6 1.2 -0.5 1.3 -2.2 1.6 -9 1.6 -4.6 0 -8.4 -0.4 -8.4 -0.9z"/>
  <path d="M140.6 381.4 c-4.2 -1.5 -6.6 -3.2 -6.6 -4.5 0 -0.9 7.3 2.1 7.8 3.3 0.2 0.4 0.9 0.5 1.6 0.2 0.7 -0.3 1.9 0.2 2.6 1.1 1.6 1.9 0.1 1.9 -5.4 -0.1z"/>
 </g>
 <g fill="#edaf49">
  <path d="M144.8 364.5 c-2.6 -0.7 -7.6 -2.5 -11.2 -3.9 -5.2 -2.1 -8.1 -2.6 -15.3 -2.6 -10.6 0 -13 0.6 -13.9 3.2 -0.4 1.5 -0.8 1.7 -1.4 0.8 -0.4 -0.7 -1.5 -1 -2.4 -0.7 -0.8 0.3 -1.8 0.2 -2.1 -0.4 -0.4 -0.5 -1 -0.7 -1.5 -0.4 -0.5 0.3 -1.1 -0.4 -1.5 -1.5 -0.4 -1.1 -1 -1.8 -1.4 -1.5 -0.5 0.2 -1.7 -0.5 -2.7 -1.6 -1 -1.1 -2.3 -1.8 -3 -1.5 -0.7 0.3 -1.5 -0.2 -1.8 -1 -0.3 -0.8 -1.1 -1.4 -1.8 -1.4 -1.9 0 -28.9 -26.6 -33.5 -33 -5.2 -7.1 -16.5 -25.5 -19.9 -32.2 -2.6 -5.1 -2.6 -5.3 -1 -10.3 0.9 -2.9 1.6 -6.1 1.6 -7.1 0 -3 2 -4.4 6.2 -4.4 2.8 0 4.1 0.6 5.2 2.3 2.2 3.2 4.6 15.7 4.6 23.2 0 6.2 0.1 6.5 2.8 7.1 6.5 1.4 8.3 2.7 10.9 7.8 4.3 8.6 6.8 10.6 13.2 10.6 3.3 0 7.3 0.8 9.6 1.9 3.7 1.6 4.2 2.3 5.3 7 0.7 2.9 1.2 6.3 1.2 7.6 0 1.8 0.8 2.6 3.3 3.4 1.7 0.6 5.9 3.8 9.3 7 5.7 5.5 6.6 6 12 6.6 3.2 0.4 6.5 1.2 7.2 1.8 2.3 1.8 5.2 -2 5.2 -7 0 -4.3 0 -4.3 4.3 -4.3 3 0 5.4 0.9 8.6 3 2.4 1.7 5.6 3 7.1 3 1.4 0 3.5 0.7 4.6 1.5 2.8 2.1 4.4 1.8 4.4 -0.9 0 -4.7 0.9 -5.6 6 -5.6 4.3 0 5.1 0.4 8.2 3.8 3.5 3.9 3.5 3.9 6.9 2.1 4.8 -2.6 12.1 -2.5 14.5 0.2 1.8 2 1.8 2 2.6 0 0.6 -1.8 1.6 -2.1 6.5 -2.1 3.7 0 6.7 0.6 8.1 1.6 1.2 0.8 2.2 1.1 2.2 0.6 0 -1.6 9.2 -8.2 11.3 -8.2 1.1 0 3.2 -1.4 4.6 -3 2.9 -3.5 10.9 -5.9 19.5 -6 4.5 0 5.2 -0.4 8.3 -4 2.8 -3.2 4.1 -4 6.9 -4 3.9 0 4.6 2 1.2 3.5 -1.2 0.6 -3.3 2.6 -4.6 4.5 -2 3.1 -2.1 3.6 -0.8 4.6 0.9 0.6 1.6 1.9 1.6 2.8 0 2.3 -4.5 2.1 -7 -0.4 -2.2 -2.2 -9 -2.8 -9 -0.8 0 0.7 1.1 2.4 2.5 3.8 3 3.2 2.5 5.8 -1.4 6.6 -3 0.6 -5.9 1.9 -8.3 3.6 -1.5 1.1 -2.3 0.7 -5.5 -2.4 -2.1 -1.9 -4.5 -3.8 -5.3 -4 -2 -0.7 -11 6.9 -11 9.2 0 2.5 -3.9 9 -5.3 9 -0.7 0 -4.3 -1.4 -8.2 -3 -3.8 -1.7 -7.5 -3 -8.2 -3 -0.8 0 -4 1.4 -7.3 3 -3.3 1.7 -6.5 3 -7.1 3 -0.6 0 -2.6 -1.3 -4.4 -2.9 -2.9 -2.6 -4.4 -3 -12 -3.6 -10 -0.9 -10.5 -0.6 -10.5 6.3 0 4.6 0 4.6 -7.2 2.7z m-39.8 -10.4 c0 -2.3 -11 -12.8 -14.3 -13.6 -4.2 -1.1 -4.7 -0.3 -2.7 4.3 1.8 3.9 2.2 4.2 5.8 4.2 4.8 0 5.7 0.8 3.5 3.2 -1.4 1.5 -1.5 2.1 -0.4 2.7 0.7 0.5 2.1 0.6 3.1 0.4 1 -0.3 2.1 0 2.5 0.6 0.9 1.5 2.5 0.4 2.5 -1.8z"/>
  <path d="M208 306.1 c-2.5 -1.7 -5.5 -3.1 -6.6 -3.1 -1.2 0 -3.2 -0.9 -4.5 -1.9 -2.4 -1.9 -2.5 -1.9 -4.8 0 -1.6 1.3 -3.9 1.9 -7.3 1.9 -6.3 0 -8.5 -1.2 -9.3 -5.1 -0.5 -2.2 -1 -2.8 -1.8 -2 -0.6 0.6 -2.8 1.1 -4.9 1.1 -3.2 0 -4.1 -0.5 -6 -3.5 -1.5 -2.1 -3.9 -4 -6.5 -5 -4.3 -1.7 -4.3 -1.7 -4.3 -7 0 -6 -1.4 -7.8 -6 -7.7 -1.7 0 -3 -0.4 -3 -0.9 0 -0.6 0.4 -0.8 0.9 -0.4 0.5 0.3 1.2 0.1 1.5 -0.4 0.3 -0.5 -0.1 -1.1 -0.9 -1.5 -3.2 -1.2 -1.3 -2.1 3.4 -1.6 4.7 0.5 5.3 0.9 11.6 8.4 6.7 7.8 6.8 7.8 10.7 7.2 3.1 -0.5 4.5 -0.2 6.5 1.4 2.1 1.7 3.5 1.9 6.8 1.4 3.9 -0.5 4.5 -0.3 7.7 3.1 3.4 3.7 3.4 3.7 6.8 0.9 2.2 -1.9 4.2 -2.8 6.1 -2.6 1.5 0.2 4.1 -0.4 5.8 -1.2 3.9 -2.1 3.7 -2.1 5 1.4 1.2 3.5 2.4 3.7 6.9 1 3.5 -2.2 4.3 -1.3 1.3 1.4 -1.4 1.2 -1.7 2.2 -1 3 0.5 0.6 1.5 1.9 2.2 2.9 1.1 1.6 1.5 1.6 7.2 0 7.7 -2.2 15 -2.2 20 0.2 2.2 1 4.3 1.7 4.8 1.7 0.4 -0.1 0.7 0.5 0.7 1.3 0 1.9 -4.4 2 -9.8 0.1 -3.6 -1.3 -4.6 -1.3 -10.2 0.5 -3.4 1 -7 1.9 -8 1.9 -1 0 -3.3 1.2 -5 2.6 -4.8 4.1 -10.4 4.3 -16 0.5z"/>
 </g>
 <g fill="#64b5bf">
  <path d="M290 202.7 c0 -1.8 -7.3 -4.7 -11.9 -4.7 -2.2 0 -4.2 -0.4 -4.5 -0.9 -0.3 -0.4 -0.9 -5.9 -1.2 -12.1 -0.6 -9.1 -0.4 -11.4 0.7 -12.1 1.1 -0.7 1.1 -0.9 -0.3 -0.9 -1 0 -1.8 -0.6 -1.8 -1.4 0 -1.1 -2 -2.6 -3.5 -2.6 -0.2 0 -0.6 1.2 -0.8 2.8 -0.3 2.2 -0.4 2 -0.6 -1.1 -0.1 -3.3 -0.5 -3.9 -4 -5.3 -2.4 -0.9 -5 -3.2 -7 -5.9 -4.7 -6.6 -16.8 -15.5 -21 -15.5 -1.5 0 -9.2 -5.4 -12 -8.4 -1.4 -1.4 -3 -2.6 -3.8 -2.6 -0.7 0 -1.3 -0.7 -1.3 -1.5 0 -1.7 6.5 -2.2 7.5 -0.5 1.2 1.9 4.5 1.1 4.5 -1 0 -1.7 0.7 -2 4 -2 4 0 4 0 4 4.5 0 4.4 0.1 4.5 3.3 4.7 1.7 0.1 6.4 0 10.2 -0.1 7 -0.3 7 -0.3 9.3 4.3 1.2 2.6 2.2 5.3 2.2 6.1 0 0.8 0.4 1.5 0.9 1.5 0.5 0 3.6 2.2 6.8 4.9 5.9 5 5.9 5 7.1 15.8 1.3 10.8 1.3 10.8 6.3 15.7 2.7 2.6 5.8 6.5 6.9 8.7 2.1 4 2.7 10.9 1 10.9 -0.5 0 -1 -0.6 -1 -1.3z"/>
  <path d="M299.6 192.2 c-0.9 -3.2 -1.6 -8 -1.6 -10.6 0 -4.7 0 -4.7 3.7 -4.4 3.1 0.3 3.8 0.8 4.9 3.8 0.7 1.9 1.3 6.5 1.3 10.3 0.1 6.7 0.1 6.7 -3.3 6.7 -3.2 0 -3.4 -0.2 -5 -5.8z"/>
  <path d="M335 180.1 c0 -2.2 0.6 -4.6 1.4 -5.4 0.8 -0.8 1.1 -1.8 0.6 -2.3 -0.9 -1 -1.7 -6.2 -2.8 -19.4 -0.6 -7 -1.4 -10.4 -3 -13 -1.2 -1.9 -2.2 -4.7 -2.2 -6.1 0 -1.5 -1 -3.5 -2.5 -4.7 -2.1 -1.8 -2.5 -3.1 -2.5 -7.7 0 -4.1 0.4 -5.5 1.5 -5.5 0.9 0 1.6 1.4 2 3.8 0.4 2 0.8 4.2 1 4.9 0.7 2.1 10.7 4.4 21.5 4.9 12.3 0.6 15.3 1.1 14.5 2.4 -0.3 0.6 -0.1 1 0.5 1 0.7 0 1 0.7 0.6 1.5 -0.3 0.8 -0.1 1.5 0.5 1.5 0.6 0 0.7 0.5 0.4 1 -0.3 0.6 -0.1 1 0.5 1 0.7 0 1 0.7 0.6 1.5 -0.3 0.8 -0.1 1.5 0.5 1.5 0.6 0 0.9 0.7 0.5 1.5 -0.3 0.8 -0.1 1.5 0.5 1.5 0.6 0 0.9 0.6 0.6 1.4 -0.3 0.8 -0.1 1.7 0.6 2 0.9 0.5 0.9 0.7 0 1.2 -1.8 0.8 -1.6 2.4 0.2 2.4 0.8 0 1.5 0.5 1.5 1 0 0.6 -0.4 1 -1 1 -0.5 0 -1 0.5 -1 1 0 0.6 0.7 1 1.5 1 0.8 0 1.5 0.4 1.5 0.9 0 1.2 -3.2 2.4 -3.9 1.4 -0.3 -0.4 -2.5 -1.8 -4.9 -2.9 -2.4 -1.2 -4.3 -2.4 -4.3 -2.8 0.2 -1.9 0 -2.6 -1 -2.6 -0.5 0 -0.8 0.3 -0.5 0.8 0.2 0.4 -0.2 1.5 -0.9 2.5 -1.2 1.7 -1.4 1.7 -3.3 -0.4 -2.1 -2.1 -2.1 -2.1 -3.2 2.2 -0.7 2.4 -1.7 5 -2.2 5.7 -0.8 0.9 -0.4 2.6 1.6 6.1 3.3 6.1 3.3 7.9 -0.1 11.5 -2.7 2.9 -2.7 2.9 -3.6 0.8 -0.6 -1.2 -1.4 -2.2 -1.9 -2.2 -0.4 0 -0.8 -0.6 -0.8 -1.3 0 -0.8 -1.2 -2.4 -2.6 -3.8 -2.6 -2.4 -2.6 -2.4 -1.9 5.4 0.7 7.7 0.7 7.7 -1.9 7.7 -2.4 0 -2.6 -0.4 -2.6 -3.9z"/>
  <path d="M252.5 58.2 c-2.7 -1 -7.1 -3.2 -9.7 -5 -3.9 -2.7 -5.6 -3.2 -10.5 -3.2 -5.9 0 -6.5 -0.2 -14.9 -5.4 -3.6 -2.2 -6.2 -3 -10.8 -3.2 -3.4 -0.1 -8 -0.5 -10.2 -0.9 -3 -0.5 -5 -0.2 -7.3 1 -2.2 1.1 -5.3 1.5 -9.6 1.4 -4.9 -0.2 -7.1 0.3 -10 1.9 -2 1.2 -4.9 2.2 -6.6 2.2 -2.6 0 -2.9 -0.3 -2.9 -3.2 0 -1.7 0.7 -4 1.6 -5 1.3 -1.4 1.4 -2.1 0.5 -3.2 -1.9 -2.3 -1 -6 1.6 -6.4 1.3 -0.2 2.3 -0.7 2.3 -1.2 0 -0.4 1.7 -0.8 3.8 -0.8 2.1 0 6.4 -1 9.6 -2.2 5.2 -2 6.2 -2.9 9.5 -8.1 3.4 -5.6 3.8 -5.9 7.6 -5.8 5.9 0.2 16.5 1.6 12.9 1.8 -3.3 0.1 -6.4 2.7 -6.4 5.4 0 3.6 10.5 8.5 15.5 7.3 1.4 -0.4 5 0.9 10.1 3.4 4.3 2.2 8.4 4 9.1 4 0.9 0 1.3 1.8 1.3 6 0 3.3 0.4 6 0.8 6 0.5 0 2.2 1.1 3.8 2.5 1.6 1.4 3.3 2.5 3.8 2.5 0.5 0 1.7 0.7 2.6 1.5 2.2 2 12 5.6 13.1 4.9 0.5 -0.3 0.9 0.4 0.9 1.5 0 1.7 -0.6 2.1 -3.2 2.1 -1.8 -0.1 -5.5 -0.8 -8.3 -1.8z m-85.5 -22.7 c0 -2.3 -0.5 -3.1 -1.9 -3.2 -1.3 -0.1 -1.8 0.4 -1.6 2 0.1 1.2 0.3 3.6 0.4 5.2 0.2 2.9 0.2 2.9 1.6 1.1 0.8 -1.1 1.5 -3.4 1.5 -5.1z"/>
 </g>
 <g fill="#f96b4f">
  <path d="M85.6 323.4 c-1.5 -3.9 -0.7 -5.4 2.9 -5.4 3.3 0 3.5 0.2 3.5 3.5 0 3.2 -0.3 3.5 -2.9 3.5 -1.7 0 -3.1 -0.6 -3.5 -1.6z"/>
  <path d="M64.3 308.3 c-1.3 -0.2 -2.3 -1.2 -2.3 -2.1 -0.1 -2.6 -3.5 -6.2 -5.9 -6.2 -1.7 0 -2.1 -0.6 -2.1 -3.5 0 -3.3 0.2 -3.5 3.3 -3.6 3 -0.2 3 -0.2 0.5 -0.6 -3.1 -0.5 -3.2 -1.1 -2.2 -10 0.6 -4.9 0.9 -5.3 3.4 -5.3 1.7 0 4.1 1.3 6.5 3.4 2 1.9 5.2 3.7 7.1 4.1 3.1 0.5 3.4 0.9 3.4 4 0 3.1 -0.3 3.5 -2.6 3.5 -2.1 0 -2.5 0.3 -1.9 1.8 0.4 0.9 1 4.7 1.2 8.5 0.6 6.7 0.6 6.7 -2.8 6.6 -1.9 -0.1 -4.4 -0.4 -5.6 -0.6z"/>
  <path d="M148.8 300 c-0.2 -0.6 -2.6 -1.3 -5.4 -1.6 -4.7 -0.6 -5.4 -1 -9.2 -6 -2.3 -3 -4.9 -5.4 -5.8 -5.4 -1.5 0 -1.6 -0.9 -1.1 -7 0.6 -6.9 0.6 -7 -3.7 -13.2 -7.3 -10.7 -10.7 -18.6 -11.4 -25.8 -0.5 -6.9 -1.9 -8.9 -6 -9 -3.1 0 -5.9 -6.4 -8 -18.5 -1.9 -11.3 -1.1 -16.5 2.8 -17.5 5.1 -1.4 15 -2.1 15 -1.1 0 0.5 -2.5 4.3 -5.5 8.3 -3 4 -5.5 7.6 -5.5 7.9 0 0.3 2.3 2 5.1 3.8 4.3 2.6 5 3.5 4.5 5.4 -1.6 5.9 -1.8 9.4 -0.4 10.8 0.8 0.8 1.5 3.7 1.6 6.4 0.2 3.5 1.5 7.4 4.4 13 3.6 7.1 5.4 9.9 12.1 19 1 1.4 2.8 2.5 4 2.6 1.4 0 3.3 1.6 5.2 4.1 2.6 3.6 7.5 7.9 7.5 6.6 0 -0.3 -1.6 -2.1 -3.5 -4.1 -2.1 -2.2 -3.3 -4.2 -2.9 -5.1 0.5 -1.2 1.1 -0.9 3.1 1.4 1.3 1.7 3.8 3.8 5.5 4.7 2.9 1.7 3 2 2.6 8.1 -0.3 4.6 -0.1 6.2 0.9 6.2 0.8 0 1.3 1.3 1.3 3.5 0 3.3 -0.2 3.5 -3.4 3.5 -1.9 0 -3.6 -0.5 -3.8 -1z m-46.6 -95.9 c0.2 -2.2 0 -3.7 -0.4 -3.5 -0.8 0.5 -1.1 7.4 -0.4 7.4 0.2 0 0.6 -1.8 0.8 -3.9z"/>
  <path d="M34.4 268.4 c-0.4 -1.1 -1.3 -3.4 -2 -5.3 -1.8 -4.2 -1.8 -9.6 -0.1 -11.3 0.7 -0.7 1.6 -2.1 2 -3 0.3 -1 1.3 -1.8 2.2 -1.8 2 0 -3.4 -8.9 -7.6 -12.4 -1.6 -1.4 -2.9 -3.2 -2.9 -4 0 -0.9 -0.6 -1.6 -1.2 -1.6 -0.7 0 -2.6 -2.6 -4.3 -5.8 -1.6 -3.1 -4.3 -7.2 -5.9 -9 -2.9 -3.3 -2.9 -3.4 -2.8 -15.5 0.1 -12.7 0.9 -21.7 2 -23.4 1.1 -1.7 6.9 -4.3 9.5 -4.3 4.7 0 5.6 -4.6 2.6 -12.8 -0.9 -2.3 -0.9 -2.3 -5 -0.2 -2.2 1.2 -4.3 2 -4.5 1.8 -1.3 -1.3 7.9 -26.5 10.4 -28.5 1 -0.8 4.6 -1.3 9.4 -1.3 6.1 0 8.9 -0.5 13.3 -2.5 6.4 -2.8 6.3 -2.6 1.8 -12.2 -2.4 -5.2 -2.4 -5.4 -0.8 -11.5 1.8 -7.3 2.7 -8.5 6.6 -9.3 4.1 -0.9 13.9 -14.5 13.9 -19.3 0 -2.8 0.5 -3.5 3.5 -4.8 4.4 -1.8 5.6 -1.8 4.9 0.1 -0.4 0.9 0 1.5 1 1.5 0.9 0 1.6 -0.8 1.6 -1.7 0.1 -1.4 0.4 -1.2 1.5 0.7 1.5 2.6 1.6 2.3 2 -3.3 0.3 -4.5 4.1 -7.7 9.2 -7.7 3.4 0 5 -0.6 8 -3.3 3.5 -3.1 4 -3.2 6.3 -2.1 1.4 0.8 4.9 1.8 7.8 2.4 3.3 0.7 5.2 1.7 5.2 2.6 0 1.6 -3.5 1.8 -9.2 0.5 -5.1 -1.2 -9 1.8 -13.9 10.5 -2.6 4.8 -4.6 7.1 -6.8 8 -3 1.3 -3.1 1.5 -3.1 7.4 0 6 0 6 -6.1 11.8 -3.3 3.1 -7.1 6.3 -8.2 7.1 -4.1 2.6 -9.6 10.8 -11.1 16.7 -0.8 3.1 -2.1 6.3 -2.9 7.1 -1.5 1.5 -14.2 6.2 -16.8 6.3 -2.4 0 -3.4 15.6 -1.4 20.5 2.5 5.7 1.9 9 -2.1 13.5 -3.3 3.6 -3.6 4.3 -2.5 6.6 1.6 3.7 1.4 12.1 -0.5 14.9 -1.3 2.1 -2.4 2.5 -6.3 2.5 -4.5 0 -4.6 0.1 -6.3 4.3 -2.7 6.4 -2.3 10.8 1.7 18.7 1.9 3.8 3.5 7.6 3.5 8.5 0 0.8 0.6 1.5 1.4 1.5 2.4 0 7.6 5 10.6 10.4 3.4 5.8 4.2 13.6 1.5 13.6 -0.8 0 -1.5 0.9 -1.5 2 0 1 -0.7 2.3 -1.6 2.8 -1.2 0.7 -1.5 1.7 -0.9 4 0.9 4.3 2.5 5.1 2.5 1.3 0 -3.5 2.2 -5.1 6.9 -5.1 2.8 0 3.1 0.3 3.1 3.1 0 3.8 -2.3 5.8 -6.7 5.9 -3 0 -3.3 0.3 -3.3 3 0 3.2 -0.9 3.7 -2.8 1.8 -0.8 -0.8 -1.5 -0.8 -2.6 0.2 -1.3 1 -1.7 0.9 -2.2 -0.6z"/>
 </g>
 <g fill="#f77f29">
  <path d="M120.9 355.1 c-1.3 -1 -5.1 -2.2 -8.3 -2.6 -5.4 -0.6 -6.3 -1.1 -12 -6.6 -3.4 -3.2 -7.6 -6.4 -9.3 -7 -2.5 -0.8 -3.3 -1.6 -3.3 -3.4 0 -1.3 -0.5 -4.7 -1.2 -7.6 -1.1 -4.7 -1.6 -5.4 -5.3 -7 -2.3 -1.1 -6.3 -1.9 -9.6 -1.9 -6.4 0 -8.9 -2 -13.2 -10.6 -2.6 -5.2 -4.6 -6.6 -11.3 -7.9 -3.2 -0.6 -3.2 -0.6 -2.7 -6.3 0.6 -6.5 -1.9 -20.3 -4.3 -24 -2.6 -3.9 -4.3 -2.3 -6.2 5.8 -0.6 2.5 -1.3 5.2 -1.6 6 -0.9 2.3 0.7 3.9 4.2 4.2 2.3 0.2 3.2 0.7 3.2 2 0 1 0.7 1.8 1.5 1.8 1 0 1.5 1 1.5 3.1 0 1.7 -0.4 2.8 -1 2.4 -0.5 -0.3 -1 -0.1 -1 0.5 0 0.7 -0.6 0.8 -1.9 0.1 -1 -0.6 -2.1 -0.8 -2.3 -0.5 -0.3 0.2 -0.8 -0.9 -1.2 -2.6 -0.3 -1.7 -1 -2.9 -1.5 -2.6 -1 0.6 -5.9 -9.9 -10.6 -23 -7.1 -19.6 -11.5 -40.7 -11.5 -54.9 0 -7 0 -7 4.3 -2.5 2.3 2.5 4.8 5.5 5.5 6.5 0.7 1.1 0.5 0.6 -0.3 -1.2 -0.8 -1.8 -1.5 -4.2 -1.5 -5.5 0 -1.9 0.2 -2 1.4 -0.8 0.8 0.8 3.3 4.9 5.5 9 2.2 4.2 5.4 8.6 7.1 9.9 1.7 1.2 4.7 4.7 6.6 7.6 4.4 6.9 4.7 13.2 0.9 17.7 -1.4 1.6 -2.5 3.8 -2.5 4.9 0 2 0 2 2.9 0 2.9 -2.1 9.5 -2.8 11.7 -1.3 1.8 1.1 5 8.1 7.4 15.9 1.2 4 2.8 7.7 3.6 8.4 0.8 0.6 1.4 1.7 1.4 2.4 0 0.7 0.9 3.3 2.1 5.9 1.1 2.6 1.9 6.1 1.7 7.9 -0.2 2.7 -0.6 2 -2.3 -4.1 -1.5 -5.9 -2.5 -7.8 -5 -9.5 -2.7 -1.9 -2.9 -1.9 -1.4 -0.1 0.9 1 1.9 2.8 2.2 3.9 0.2 1.1 1.3 3.8 2.2 6 1.7 4 1.7 4 -0.3 2.2 -2.5 -2.3 -3.7 -0.1 -1.2 2.3 0.9 0.8 1 1.1 0.3 0.6 -2.1 -1.4 -2.5 -0.1 -0.5 1.7 1 1 3.7 1.9 5.9 2.1 2.2 0.2 6.6 1.1 9.7 2 6 1.8 8.8 4.8 10.2 10.9 0.3 1.5 1.3 3.1 2.2 3.3 1 0.3 5 1.9 9.1 3.6 6.7 2.9 7.6 3 10.5 1.8 1.7 -0.7 6.1 -1.5 9.7 -1.7 6.5 -0.4 6.5 -0.4 10 3.4 2 2.2 4.1 3.7 4.7 3.5 0.7 -0.2 1.2 -2.6 1.2 -6.3 0 -5.9 0 -5.9 3.5 -5.9 6.9 0 17.5 7.2 17.5 11.9 0 4.8 1.9 5.3 5.8 1.4 3.5 -3.5 3.5 -3.5 11.1 -2.9 9 0.7 9.8 0.7 17.8 0 3.6 -0.3 6.9 -0.1 8.1 0.5 2.3 1.2 9.9 -1.1 17.2 -5.3 2.6 -1.5 6 -2.6 8.3 -2.6 3.7 0 3.7 0 3.7 4 0 2.5 -0.5 4 -1.2 4 -0.7 0 -3.3 1.4 -5.8 3 -2.5 1.6 -5.2 3 -6.1 3 -0.9 0 -3.6 0.9 -6 2 -4.5 2 -13.9 2.7 -13.9 1.1 0 -2.1 -3.4 -2.1 -5.7 0 -1.8 1.8 -2.3 3.3 -2.3 7 0 4.2 -0.2 4.7 -2 4.2 -1.1 -0.3 -4.6 1 -8.5 3.1 -5 2.8 -6.5 3.3 -6.5 2.2 0 -2.3 -6.9 -9.6 -9.1 -9.6 -1.1 0 -2 0.5 -2 1 -0.3 2.1 -0.5 2.6 -2.2 5.1 -1.9 2.8 -5.3 2.9 -9.2 0.3 -1.1 -0.8 -3.1 -1.4 -4.6 -1.4 -1.4 0 -4.6 -1.3 -7 -3 -5.1 -3.4 -7.5 -3.9 -6.4 -1.2 1.4 3.1 0.7 5.4 -2.6 8.8 -3.8 3.9 -4.7 4.1 -8 1.5z m55.1 -17.2 c0 -2.5 -3.3 -2.2 -3.8 0.4 -0.2 1.2 0.3 1.7 1.7 1.7 1.5 0 2.1 -0.6 2.1 -2.1z m-137.1 -98.9 c-1.2 -2.2 -3.6 -5.2 -5.3 -6.7 -3 -2.8 -3 -2.8 0.2 1 1.7 2 3.9 5.1 4.7 6.7 0.9 1.7 1.8 3 2.1 3 0.3 0 -0.5 -1.8 -1.7 -4z"/>
  <path d="M205.5 317.9 c-3.3 -0.6 -6.7 -1.7 -7.6 -2.5 -2 -1.8 -6 -1.8 -8.5 0.1 -2.6 2 -17.7 2 -23.5 0 -5.1 -1.8 -5.9 -2.8 -5.9 -7.7 0 -3.3 -0.3 -3.8 -2.3 -3.8 -3.1 0 -11.7 -5.6 -11.7 -7.5 0 -1.2 0.6 -1.5 1.9 -1 1.2 0.4 1.8 0.1 1.8 -0.7 -0.1 -0.7 0.2 -3.2 0.7 -5.5 0.8 -4.5 0.9 -4.3 -5.1 -10.7 -2 -2.2 -3.1 -4.1 -2.7 -5 0.3 -0.9 1 -1.4 1.4 -1.1 0.5 0.3 1.1 0.1 1.5 -0.5 0.3 -0.5 2.2 -1 4 -1 2.8 0 3.9 0.7 5.9 3.6 2.1 3.2 2.3 3.9 1 5.1 -2.4 2.4 -1.6 4.1 2.9 5.8 2.7 1 5 2.9 6.5 5.1 1.5 2.2 2.9 3.4 3.8 3 1 -0.4 1.4 0.3 1.4 2.5 0 3.6 2.4 4.8 5 2.4 1.7 -1.6 2.1 -1.6 4.2 -0.1 2.8 2 5.8 2 8.4 0.1 1 -0.8 2.7 -1.5 3.7 -1.5 0.9 0 1.7 -0.4 1.7 -1 0 -1.8 2.9 -1 5.4 1.5 1.4 1.4 3.5 2.5 4.8 2.5 1.3 0 4.3 1.3 6.7 2.9 4.6 3.1 6.2 3.1 9.8 -0.1 1.1 -1.1 3.7 -2.3 5.7 -2.8 3.6 -0.8 3.6 -0.8 3.6 2.6 0 1.9 0.5 3.4 1 3.4 0.6 0 1 1.6 1 3.5 0 2.5 -0.5 3.7 -1.7 4.1 -1 0.3 -3.8 1.5 -6.2 2.6 -5.3 2.5 -10.7 3 -18.6 1.7z"/>
 </g>
 <g fill="#8db45b">
  <path d="M279.8 322.9 c-1.3 -3.1 -2.2 -3.9 -4.2 -3.9 -2.3 0 -6.6 3.3 -6.6 5.2 0 1.5 -4.9 0.8 -7 -0.9 -1.5 -1.3 -2 -3 -2 -6.4 0 -2.6 0.3 -5.5 0.7 -6.4 0.8 -2.2 14.9 -11.5 17.3 -11.5 6.4 0 8.2 -4.1 7.4 -16.8 -0.7 -9.9 -0.7 -9.9 2.8 -12.5 2.5 -1.9 4.7 -2.7 7.6 -2.7 3.1 0 4.2 -0.4 4.7 -1.9 0.3 -1.1 1.5 -3.1 2.6 -4.5 1.8 -2.3 2.8 -2.6 8.4 -2.6 3.8 0 6.6 0.5 7.3 1.3 0.5 0.6 2 4.2 3.2 8 1.3 3.7 2.6 6.7 3 6.7 0.4 0 1.1 -1.2 1.4 -2.7 1.6 -6.8 2.7 -8.3 6.1 -8.3 3.3 0 3.3 0 1.4 3.7 -1 2.1 -2.9 6.6 -4.2 9.9 -2 5.2 -2.2 6.4 -1 8 1.7 2.4 1.8 17.4 0.1 19.7 -0.8 1 -4 2.1 -8.8 2.8 -12.5 1.9 -14.1 2.7 -17.2 8.8 -1.5 3 -3 5.6 -3.2 5.8 -0.2 0.3 -3 1 -6.3 1.8 -3.2 0.7 -7.2 1.7 -8.8 2.3 -2.9 0.9 -3.1 0.8 -4.7 -2.9z"/>
  <path d="M254 300 c0 -0.5 0.5 -0.9 1.2 -0.7 1 0.2 2.5 -3.5 6.1 -16.1 1.5 -5.2 1.5 -5.2 -1.8 -7.9 -2.9 -2.3 -3.2 -2.9 -2.3 -5.3 0.5 -1.5 3.3 -5.5 6.2 -9 6.3 -7.4 10.1 -17.3 9 -23.7 -0.5 -3.6 -0.3 -4.2 2.6 -6.6 1.9 -1.6 4.4 -2.7 6.1 -2.7 1.7 0 2.8 -0.4 2.5 -0.9 -0.5 -0.7 1.5 -2.1 3 -2.1 1.1 0 0.3 7.9 -0.8 8.2 -0.9 0.3 -1.4 3.5 -1.6 9.9 -0.4 9.4 -0.4 9.5 -3.6 11.6 -3.5 2.3 -4.6 5.3 -4.6 12.8 0 3.5 -0.8 5.4 -4.4 10.3 -5.4 7.3 -6.8 10.1 -9.2 17.5 -1.7 5.4 -1.9 5.7 -5.1 5.7 -1.8 0 -3.3 -0.4 -3.3 -1z"/>
  <path d="M343.7 261.2 c-4.5 -4.4 -4.8 -4.6 -5.3 -2.4 -0.8 2.8 -3.4 2.9 -3.4 0.2 0 -4.4 2.5 -15 3.5 -14.7 0.5 0.2 1.5 1.9 2.2 3.8 0.7 1.9 1.2 2.6 1.2 1.6 0.1 -2.5 3.9 -1.4 6.9 2.1 1.9 2.2 2.2 3.6 1.9 7.5 -0.2 2.7 -0.8 5.2 -1.3 5.7 -0.6 0.6 -2.8 -0.9 -5.7 -3.8z"/>
 </g>
 <g fill="#8c7d92">
  <path d="M120 168.1 c0 -0.5 -1.1 -1.2 -2.5 -1.5 -2.2 -0.6 -2.5 -1.2 -2.5 -5 0 -4.1 0.3 -4.5 6 -9 3.4 -2.5 6.5 -5.9 7 -7.4 2.2 -6.2 3.5 -7.7 7.7 -8.7 2.8 -0.7 5.9 -2.6 9.3 -5.9 2.7 -2.6 5 -5.2 5 -5.7 0 -0.5 2.2 -0.9 4.9 -0.9 2.7 0 6.2 -0.5 7.8 -1.1 1.5 -0.6 7 -1.2 12 -1.3 5.1 -0.1 9.6 -0.5 10 -0.9 0.3 -0.4 2.4 -0.7 4.5 -0.7 3.2 0 3.8 0.3 3.8 2 0 1.2 0.9 3.8 2 6 2.3 4.5 2.8 8.2 0.8 6.2 -1.4 -1.4 -3.2 -1.6 -2.4 -0.3 0.4 0.5 -1 1.9 -2.9 3.1 -3.5 2.2 -3.5 2.2 -10.8 -0.4 -4.1 -1.4 -8.2 -2.6 -9.2 -2.6 -1 0 -3.3 1.6 -5.1 3.5 -1.8 2 -4.1 3.5 -5.5 3.5 -1.2 0 -3 0.6 -3.8 1.3 -0.9 0.7 -4.2 2.1 -7.4 3.1 -5.2 1.5 -7 2.9 -16.7 12.7 -6 6 -11.2 10.9 -11.5 10.9 -0.3 0 -0.5 -0.4 -0.5 -0.9z"/>
  <path d="M132.1 67.3 c0.2 -5.7 0 -6.9 -1.4 -7.1 -3 -0.6 -1.8 -3 2.1 -4.3 4.3 -1.4 10.6 -5.2 14.2 -8.4 1.4 -1.3 4.1 -2.5 6 -2.7 3.5 -0.3 3.5 -0.3 3.2 -5.9 -0.4 -5.5 -0.3 -5.7 3.1 -7.8 3.8 -2.3 6.2 -2.8 5.1 -0.9 -1.2 1.9 -1.1 13.9 0.1 12.7 0.5 -0.5 1.3 -0.9 1.7 -0.9 1.2 0 1 3.8 -0.2 4.5 -0.5 0.3 -1 2.4 -1 4.6 0 4.8 -1.8 8.6 -6.8 14.1 -5.2 5.7 -12.1 8.8 -20 8.8 -6.3 0 -6.3 0 -6.1 -6.7z"/>
 </g>
 <g fill="#e5990c">
  <path d="M120.9 355.1 c-1.4 -1.1 -5 -2.1 -8.7 -2.6 -3.4 -0.4 -6.4 -1 -6.6 -1.4 -1.1 -1.7 12.4 0.8 15.3 2.9 4.1 2.8 5.7 2.1 7.1 -3.2 2.7 -9.8 4.6 -11 10.2 -6.3 1.6 1.4 3.6 2.5 4.3 2.5 0.8 0 3.6 0.7 6.2 1.6 4.7 1.6 4.7 1.6 6.6 -1 1 -1.5 3.6 -3.5 5.6 -4.5 3.8 -1.8 3.8 -1.8 6.9 1 1.7 1.5 3.8 3.8 4.6 5.2 1.6 2.4 1.6 2.4 7.6 -0.7 6 -3.1 6 -3.1 6 -7.7 0 -4.6 1.6 -7 6.5 -9.7 1.6 -0.9 1.7 -1.1 0.4 -1.2 -0.9 0 -2.8 0.9 -4.3 2.1 -2.7 2.1 -2.7 2.1 -7.6 0 -2.7 -1.2 -6.2 -2.1 -7.8 -2.1 -3.4 0 -7.7 3.7 -10.4 8.8 -1 1.9 -2.2 3.1 -2.8 2.7 -1.1 -0.7 5.2 -9.8 8.3 -12 2.9 -2 8 -1.9 12.5 0.4 3.7 1.9 3.8 1.9 6.1 0 2.8 -2.3 11.6 -2.6 14.5 -0.4 1.6 1.2 2.2 1.2 4.7 0 1.5 -0.8 3.6 -1.5 4.5 -1.5 1 0 3.9 -1.4 6.5 -3.1 4.3 -2.7 5.6 -3 10.8 -2.7 4.3 0.2 6.4 -0.1 7.7 -1.3 4 -3.3 9.3 -5.9 12.3 -5.9 3.1 0 3.1 0 3 9.3 -0.2 9 -0.2 9.4 -2.3 9 -1.1 -0.2 -5 0.3 -8.6 1.1 -5.3 1.2 -7.1 2.2 -9.6 5.2 -2 2.4 -3.7 3.5 -4.7 3.1 -1.8 -0.7 -10.4 5.7 -11.2 8.4 -0.8 2.5 -1.8 2.4 -6.4 -0.7 -5.4 -3.5 -9.2 -3 -10.5 1.4 -1.2 4.2 -4.4 4.3 -6.8 0.2 -2.7 -4.7 -4.5 -4.8 -12 -0.7 -5.1 2.8 -6.8 3.4 -6.8 2.2 0 -2.2 -6.9 -9.5 -9 -9.5 -1 0 -2 0.7 -2.4 1.5 -0.3 1 0.1 1.5 1.2 1.5 2 0 8.5 6.7 7.3 7.5 -1.2 0.7 -16.3 -2.4 -19.3 -4.1 -1.4 -0.7 -3.7 -1.4 -5.1 -1.4 -1.3 0 -4.4 -1.3 -6.8 -3 -4 -2.7 -6.9 -3.8 -6.9 -2.5 0 0.2 0.5 1.6 1.2 3 1 2.3 0.8 2.9 -2.7 6.5 -4.4 4.5 -5.3 4.7 -8.6 2.1z m87 -22.1 c2.4 -1.1 5.1 -2 6 -2 0.9 0 3.6 -1.4 6.1 -3 2.5 -1.6 5.1 -3 5.8 -3 0.6 0 1.2 -0.4 1.2 -1 0 -1.5 -0.9 -1.3 -6.4 1.8 -2.8 1.6 -8.2 3.9 -11.9 5.2 -6.6 2.3 -6.8 2.3 -9.8 0.6 -1.7 -1 -3.2 -1.6 -3.5 -1.4 -0.2 0.3 0.7 1.1 2.1 1.8 1.4 0.7 2.5 1.7 2.5 2.2 0 1.4 3.3 0.9 7.9 -1.2z"/>
  <path d="M98.5 343.8 c-4 -4.3 -4 -4.3 0.3 -0.3 2.3 2.1 4.2 4 4.2 4.2 0 0.8 -0.9 0 -4.5 -3.9z"/>
  <path d="M173.5 344 c0.4 -0.6 -0.5 -1 -1.9 -1 -1.4 0 -2.6 -0.5 -2.6 -1.1 0 -0.6 -0.7 -0.9 -1.5 -0.6 -4.3 1.7 -0.2 -6.8 4.5 -9.3 2.5 -1.4 11.2 2.6 8.9 4.1 -0.8 0.4 -1.4 1.4 -1.5 2.1 0 0.7 -0.2 2.5 -0.2 4.1 -0.2 2.3 -0.6 2.7 -3.3 2.7 -1.7 0 -2.8 -0.4 -2.4 -1z"/>
  <path d="M89.3 338.3 c-0.7 -0.2 -1.3 -1.7 -1.3 -3.1 0 -1.5 -0.6 -5 -1.4 -7.9 -1.3 -4.8 -1.3 -5.1 0.3 -4.3 0.9 0.4 3.5 1.4 5.7 2 6.9 2.1 13.9 6.3 14.2 8.6 0.3 1.8 -0.2 2.2 -2.2 2 -3 -0.1 -3.4 -1.2 -0.8 -2 0.9 -0.3 0.5 -0.4 -1 -0.2 -2 0.2 -2.9 -0.2 -3.4 -1.6 -0.7 -2.4 -4.9 -5.1 -8.1 -5.3 -2.5 -0.1 -2.5 0 -1.9 5.4 0.4 3 1.2 5.9 1.9 6.3 1.3 0.8 -0.1 0.9 -2 0.1z"/>
  <path d="M133 333.5 c0 -1 0.9 -1.5 2.7 -1.5 2.9 0 2.9 0.2 -0.4 1.9 -1.9 1 -2.3 0.9 -2.3 -0.4z"/>
  <path d="M97.5 325 c-4.9 -2.2 -9.4 -4.1 -10 -4.3 -0.5 -0.3 -0.7 -0.8 -0.2 -1.2 0.4 -0.5 1.3 -0.3 1.9 0.3 0.7 0.7 2 1.2 3.1 1.2 2 0 16.7 6.5 16.7 7.4 0 1.2 -2.8 0.4 -11.5 -3.4z"/>
  <path d="M189.5 311.1 c0.3 -0.6 2.3 -0.9 4.5 -0.8 5 0.2 4.1 1.7 -1.1 1.7 -2.3 0 -3.8 -0.4 -3.4 -0.9z"/>
  <path d="M225 311.3 c0.8 -0.2 2.1 -0.7 2.9 -0.9 1.1 -0.4 1 -0.7 -0.4 -1.8 -1.2 -0.9 -1.6 -2.1 -1.3 -3.9 0.7 -3.4 -0.8 -3.5 -5.2 -0.2 -4.4 3.2 -5.8 3.1 -10.6 -0.5 -5.4 -4.1 -8.1 -3.9 -12.5 1 -2 2.2 -4.2 4 -4.8 4 -1.8 0 -4.2 -6.3 -2.8 -7.2 0.7 -0.4 -0.4 -0.8 -2.3 -0.8 -3.5 0 -3.5 0 -0.4 -1.9 1.8 -1.1 3.5 -2.4 3.8 -3 1.2 -1.9 5.4 -1.2 8 1.4 1.4 1.4 3.5 2.5 4.8 2.5 1.3 0 4.3 1.3 6.7 2.9 4.6 3.1 6.2 3 9.7 0 1.1 -1.1 5.6 -2.8 10 -4 12.8 -3.4 12.4 -3.4 12.4 -1.1 0 1.2 -0.9 2.3 -2 2.7 -1.5 0.5 -2 1.5 -2 4.1 0 5.3 -2.8 7.4 -9.7 7.3 -3.2 0 -5.1 -0.3 -4.3 -0.6z"/>
  <path d="M168.2 301.7 c-3 -3.1 -3.1 -3.4 -1.4 -5.1 1.6 -1.8 1.6 -1.9 -0.2 -1.2 -1.5 0.5 -1.7 0.4 -0.8 -0.7 0.7 -0.8 0.8 -1.8 0.4 -2.3 -0.4 -0.4 0.1 -0.2 1.1 0.5 1.6 1.3 2.2 1 5.2 -1.9 3.4 -3.3 3.4 -3.3 4.5 -0.6 0.5 1.5 1.3 3.8 1.6 5.2 0.3 1.3 1.2 2.8 2 3.2 1 0.6 0.3 1.5 -2.8 3.5 -2.3 1.5 -4.7 2.7 -5.3 2.7 -0.6 0 -2.5 -1.5 -4.3 -3.3z"/>
 </g>
 <g fill="#03aad9">
  <path d="M275 178.5 c0 -0.8 -0.5 -1.5 -1.1 -1.5 -0.7 0 -0.9 -1.2 -0.5 -3.5 0.5 -2.6 0.3 -4 -0.9 -5.1 -1.7 -1.7 -2 -4.4 -0.5 -4.4 0.6 0 1 -0.7 1 -1.5 0 -3.6 1.8 -1 2.9 4.2 1.4 7 1.4 13.3 0.1 13.3 -0.5 0 -1 -0.7 -1 -1.5z"/>
  <path d="M299 156.5 c0 -7.5 0 -7.5 4.5 -7.5 4.5 0 4.5 0 4.5 3.5 0 1.9 -0.4 3.5 -1 3.5 -0.5 0 -1 1.8 -1 4 0 3.9 -0.1 4 -3.5 4 -3.5 0 -3.5 0 -3.5 -7.5z"/>
  <path d="M333.1 159.1 c-0.7 -2.6 -1.1 -7.2 -1 -10.2 0.1 -3.9 -0.4 -6.3 -1.9 -8.9 -1.1 -1.9 -2.6 -5.6 -3.2 -8.2 -1.1 -4.3 -1.6 -4.8 -4.5 -5.4 -4.3 -0.8 -5.5 0 -5.5 3.7 0 2.6 -0.3 2.9 -3.4 2.9 -3.1 0 -3.4 -0.3 -4 -3.7 -0.3 -2.1 -0.6 -5.4 -0.6 -7.4 0 -2 -0.8 -4.7 -1.7 -5.8 -1.8 -2.2 -1.8 -2.1 -1.5 2.9 0.6 8.3 -0.2 10 -4.6 10 -3.1 0 -4.7 -0.9 -10 -5.6 -6 -5.3 -6.3 -5.9 -6 -9.6 0.3 -3.8 0.5 -4.1 6.3 -6.5 7.2 -3 7.1 -2.9 5.6 -4.7 -2.1 -2.6 -8.4 -4.9 -13.5 -5 -4.8 -0.1 -5.2 -0.3 -6.1 -3.2 -0.6 -1.8 -2.9 -4.6 -5.5 -6.6 -9.4 -7.1 -11.6 -10.2 -12.9 -17.8 -1.3 -7 -3 -10 -5.7 -10 -1.8 0 -9.4 -5 -9.4 -6.1 0 -0.5 -0.7 -0.9 -1.5 -0.9 -0.8 0 -1.5 -0.4 -1.5 -1 0 -0.5 -0.4 -1 -0.9 -1 -0.5 0 -1.1 1.9 -1.3 4.3 -0.3 2.3 -0.8 4.9 -1.2 5.8 -0.6 1.4 0.1 1.8 4.1 2.3 7.9 1.2 8.3 1.4 8.3 5.2 0 3.4 0 3.4 -4.9 3.4 -7.8 0 -10.1 -1.3 -10.1 -5.5 0 -3.4 -0.1 -3.5 -3.9 -3.5 -3.4 0 -4.2 -0.5 -6 -3.4 -1.2 -1.8 -2.1 -4.9 -2.1 -6.7 0 -3 -0.6 -3.8 -5.3 -6.9 -4.5 -3 -5.9 -3.4 -10.3 -3.2 -3 0.2 -6.8 -0.4 -9.1 -1.3 -3.7 -1.5 -4.4 -1.5 -7.8 -0.1 -5.5 2.3 -20.5 1.9 -20.5 -0.5 0 -0.5 1.2 -1.5 2.6 -2.1 2 -0.9 3 -0.9 4.5 0 2.5 1.6 5.4 1.5 8.7 -0.2 4.7 -2.4 11.6 -2.9 15.8 -1.1 3 1.2 4.3 1.3 6.9 0.4 3.4 -1.3 3.4 -1.3 18.9 7.9 1.1 0.7 4.6 1.1 7.6 1 4.9 -0.2 6.1 0.2 11.1 3.6 6.2 4.1 14.2 6.9 17.2 6 1.7 -0.5 1.7 -0.7 0.1 -1.8 -1.5 -1.2 -1.5 -1.3 0 -1.9 0.9 -0.4 1.6 -1.1 1.6 -1.8 0 -0.6 -0.7 -0.8 -1.5 -0.5 -1.3 0.5 -1.5 -0.1 -0.9 -3.2 1 -5.7 2 -5.9 5.3 -0.6 1.7 2.7 3.5 5.5 4.1 6.2 0.6 0.7 0.8 1.7 0.5 2.2 -1 1.6 2.8 1.2 5.3 -0.6 2 -1.4 2.4 -1.4 5.1 0.5 5.3 3.8 8.1 7.9 8.1 12.1 0 2.1 0.4 5 1 6.4 0.8 2.3 1.5 2.6 5.4 2.6 5.6 0 7.1 2.1 6.1 8.8 -0.7 4.4 -0.6 4.5 5.1 10.3 3.2 3.3 6.4 5.9 7.2 5.9 0.7 0 1.1 -0.4 0.7 -0.9 -0.9 -1.6 2.5 -4.1 5.6 -4.1 2.9 0 2.9 0 0.4 5 -2.5 5 -2.5 5 1 8.9 3 3.3 3.5 4.5 3.5 9 0 4.2 0.4 5.5 2.5 7.3 1.5 1.2 2.5 3.2 2.5 4.7 0 1.4 1 4.2 2.2 6.1 1.6 2.6 2.3 5.9 2.9 13 0.4 5.2 1 10.5 1.4 11.8 0.6 1.9 0.4 2.2 -1.7 2.2 -2.1 0 -2.6 -0.7 -3.7 -4.9z"/>
  <path d="M259.7 150.9 c-0.9 -0.6 -1.4 -1.5 -1.1 -2.1 0.4 -0.6 0 -1.4 -0.7 -1.9 -1 -0.7 -0.5 -0.9 1.6 -0.7 2.4 0.2 3.1 0.8 3.3 3.1 0.4 2.9 -0.3 3.2 -3.1 1.6z"/>
  <path d="M318.2 151.3 c-0.7 -0.3 -1.7 -1.6 -2.2 -2.9 -0.5 -1.3 -1.6 -2.4 -2.5 -2.4 -1.1 0 -1.5 -1.1 -1.5 -4 0 -3.9 0.1 -4 3.4 -4 1.8 0 4.7 0.7 6.2 1.5 1.6 0.8 3.7 1.5 4.7 1.5 1.4 0 1.7 0.9 1.7 4.9 0 3.5 -0.4 5.1 -1.6 5.5 -1.8 0.7 -6.3 0.7 -8.2 -0.1z"/>
  <path d="M232.7 141.4 c-0.3 -0.4 -0.3 -1.9 0 -3.5 0.3 -1.9 0.1 -2.9 -0.6 -2.9 -0.7 0 -1 0.4 -0.7 0.9 0.3 0.5 -0.1 1.1 -0.9 1.4 -0.8 0.4 -1.6 -0.1 -2 -1.2 -0.4 -1.3 -1.3 -1.7 -2.8 -1.4 -1.4 0.3 -2.9 -0.2 -3.6 -1.1 -1.9 -2.3 -4.1 -2 -10.4 1.4 -7.2 3.8 -10.4 3.8 -15.3 -0.1 -4.5 -3.5 -6.3 -6.4 -6.4 -9.8 0 -1.6 -0.4 -2.1 -1.5 -1.7 -1 0.4 -1.5 -0.1 -1.5 -1.4 0 -1.8 0.7 -2 7.5 -2 4.2 0 8.4 0.5 9.5 1.2 1.5 1 2.6 1 5.3 0 4.9 -1.8 9.7 -1.5 14.6 0.8 3.4 1.7 6.2 2.1 13.9 2.1 5.3 0 10.2 0.3 10.9 0.7 0.6 0.4 1.9 2.6 2.8 4.9 0.9 2.3 2.5 4.5 3.6 4.8 1.4 0.5 1.9 1.6 1.9 4.3 -0.1 3.3 -0.2 3.5 -1.4 2 -1.7 -2.3 -4.4 -2.3 -6.8 -0.1 -1.5 1.3 -2.3 1.4 -4.1 0.5 -3.7 -1.9 -7.6 -2.2 -9.1 -0.6 -1.6 1.6 -2 1.7 -2.9 0.8z m1.3 -9.4 c0 -1.1 -0.4 -2 -1 -2 -0.5 0 -1 0.9 -1 2 0 1.1 0.5 2 1 2 0.6 0 1 -0.9 1 -2z"/>
  <path d="M343.8 136.6 c-4.1 -3.5 -3.7 -5.8 1 -5.4 4.1 0.3 5.4 2.8 3 6.1 -1.2 1.6 -1.5 1.6 -4 -0.7z"/>
  <path d="M278.8 50.3 c-0.5 -2.5 -0.2 -6.3 0.4 -6.3 0.4 0 0.8 1.6 0.8 3.5 0 3.1 -0.7 4.8 -1.2 2.8z"/>
 </g>
 <g fill="#f34b31">
  <path d="M127.3 327.9 c-2.9 -3 -7.6 -3.3 -12.3 -0.9 -2.2 1.1 -4.8 2 -5.9 2 -1.1 0 -6.5 -1.9 -12 -4.2 -8.4 -3.6 -10.1 -4.7 -10.6 -6.8 -1.4 -6.3 -4 -8.8 -11.7 -11 -18 -5.2 -17.8 -5.1 -17.8 -7.6 0 -2.5 1.4 -3.2 2.6 -1.3 0.8 1.4 8.6 4.9 9.5 4.3 0.4 -0.2 -0.2 -3.9 -1.3 -8.2 -1.7 -6.2 -2.9 -8.4 -6 -11.5 -2.1 -2.1 -3.6 -4.2 -3.3 -4.7 0.3 -0.6 0.2 -1 -0.4 -1 -0.6 0 -0.8 -0.7 -0.5 -1.5 0.4 -0.8 0.1 -1.5 -0.6 -1.5 -0.7 0 -1 -0.7 -0.6 -1.5 0.3 -0.8 0.1 -1.5 -0.5 -1.5 -0.6 0 -0.9 -0.7 -0.5 -1.5 0.3 -0.8 0.1 -1.5 -0.5 -1.5 -0.6 0 -0.7 -0.4 -0.4 -1 0.3 -0.5 0.1 -1 -0.5 -1 -0.6 0 -0.8 -0.4 -0.5 -1 0.3 -0.5 0.1 -1 -0.5 -1 -0.6 0 -0.8 -0.4 -0.5 -1 0.3 -0.5 0.1 -1 -0.5 -1 -0.6 0 -0.9 -0.4 -0.6 -0.8 0.2 -0.4 -0.4 -1.3 -1.5 -2 -1.7 -1.1 -2.5 -0.7 -6.4 2.9 -4.9 4.5 -5.6 4.4 -7.4 -1 -1.6 -4.9 -1.5 -5.3 2.5 -10.5 3.3 -4.4 3.5 -4.9 2.4 -7.7 -2 -4.7 -6.8 -10.8 -10.1 -12.8 -2 -1.2 -4.2 -4.4 -6.9 -10 -5.1 -10.4 -5.5 -18.5 -1.5 -27.5 2.5 -5.6 2.5 -5.6 6.1 -3.9 3.5 1.7 3.6 1.7 5.5 -0.7 2.4 -3.2 2.4 -6.7 -0.1 -10.5 -1.1 -1.6 -2 -3.5 -2 -4.1 0 -0.5 2 -3.4 4.4 -6.2 4.5 -5.2 4.5 -5.2 2.4 -10.9 -1.7 -4.9 -1.9 -6.4 -0.9 -10.1 0.6 -2.3 1.1 -6.5 1.1 -9.2 0 -4.1 0.3 -5 1.8 -5 2.7 -0.1 15.4 -4.8 16.9 -6.3 0.8 -0.8 2.1 -4 2.9 -7.1 1.5 -5.9 7 -14.1 11.1 -16.7 1.1 -0.8 4.9 -4 8.3 -7.2 6.2 -5.8 6.2 -5.8 5.8 -11.5 -0.3 -5.6 -0.2 -5.7 3.1 -7.4 2.4 -1.2 4.5 -3.7 7.2 -8.4 4.2 -7.6 6.9 -10 6.9 -6.1 0 1.3 0.7 3.2 1.5 4.3 1.6 2.1 2 10.1 0.6 12.3 -0.5 0.8 -3.5 1.5 -8 1.9 -7.1 0.5 -7.1 0.5 -7.1 5.3 0 5.7 -0.7 7.9 -2.6 7.9 -0.8 0 -1.4 0.6 -1.4 1.2 0 0.7 -4.4 5.6 -9.8 10.8 -9.1 8.7 -10 9.9 -11.2 15 -0.7 3 -2 6.9 -3 8.6 -1 1.7 -2.1 4.7 -2.5 6.5 -0.4 1.9 -1.3 4.5 -2 5.9 -3.4 6.6 -5.8 27.5 -7 61 -0.6 14.4 -0.4 18.6 0.9 23.5 1 3.8 1.6 10.2 1.6 18 0.1 8.5 0.5 12.7 1.5 14.5 1.4 2.4 1.4 2.4 1.5 0.3 0 -4.4 1 -5.3 6 -5.3 3.4 0 5.8 0.7 8.4 2.5 2.4 1.6 5.1 2.5 7.6 2.5 3 0 4.3 0.6 6.4 3.1 1.4 1.7 2.6 3.9 2.6 5 0 1.6 0.7 1.9 5 1.9 3.7 0 5.5 0.5 7 2 1.5 1.5 2 3.3 2 7 0 5 0 5 -3.4 5 -1.8 0 -3.9 -0.6 -4.5 -1.4 -0.6 -0.8 -2.1 -1.6 -3.2 -1.9 -1.7 -0.5 -2 -0.1 -1.7 2.1 0.2 2.1 1.5 3.2 6.5 5.7 5 2.5 6.5 3.8 8.2 7.3 1.6 3.3 3.1 4.7 6.6 6.2 4.5 1.9 4.5 1.9 4.5 7 0 4.7 -0.2 5 -2.6 5 -1.4 0 -2.3 0.4 -1.9 1 0.3 0.6 2.2 1 4 1 2.9 0 3.9 0.6 6.1 4 2.2 3.4 3.2 4 6.1 4 3.7 0 4.6 1.3 4.1 5.5 -0.3 2.6 -0.3 2.6 -2.5 0.4z"/>
  <path d="M150.4 307.8 c-0.9 -1.8 -2.2 -4.3 -2.8 -5.5 -1.3 -2.7 -5.7 -3 -9.6 -0.8 -1.4 0.8 -4.2 1.4 -6.3 1.5 -3.4 0 -4 -0.4 -5.1 -3.2 -0.8 -1.8 -1.7 -5.4 -2 -8 -0.5 -3.5 -1.9 -6.2 -5.5 -10.7 -4.7 -5.9 -4.8 -6.2 -6 -16.1 -0.6 -5.5 -1.1 -11.9 -1.1 -14 0 -3.9 -0.1 -4 -3.4 -4 -3 0 -3.4 -0.4 -4 -3.1 -0.8 -4.2 -0.6 -13.9 0.3 -16.3 0.7 -1.8 0.8 -1.8 1.4 -0.3 0.3 0.9 1.6 1.7 2.8 1.7 3.9 0 6.4 3.1 6.1 7.4 -0.2 2.1 0 4.6 0.4 5.5 0.4 0.9 0.8 2.1 0.9 2.6 0.2 2.2 6 13.3 9.7 18.7 4.4 6.3 6.4 12.8 4.8 15.8 -1.5 2.7 -1.2 5 0.5 5 0.8 0 3.4 2.5 5.8 5.5 3.4 4.5 4.7 5.5 7.2 5.5 1.7 0 5.5 1.3 8.5 3 3 1.6 6.5 2.9 7.8 3 1.8 0 2.2 0.6 2.2 3.4 0 1.9 0.3 4.1 0.6 5 0.5 1.4 -0.3 1.6 -5.4 1.6 -5.8 0 -6.1 -0.1 -7.8 -3.2z"/>
 </g>
 <g fill="#0e87b1">
  <path d="M300.6 203.3 c-1.4 -4.9 -2.6 -14.5 -2.6 -21 0 -7.3 0 -7.3 3.3 -7.3 2.6 0 3.7 0.8 6.1 4.1 1.5 2.2 3.1 3.8 3.3 3.5 0.3 -0.3 -0.6 -2.1 -2.1 -4 -1.9 -2.5 -2.6 -4.7 -2.6 -7.8 0 -3.9 0.4 -4.6 3.3 -6.3 1.7 -1.1 5.4 -2.2 8.1 -2.5 4.5 -0.4 5 -0.8 5.8 -3.5 0.7 -2.4 0.4 -3.3 -1.2 -4.4 -1.1 -0.7 -2 -2.2 -2 -3.2 0 -1.3 -0.7 -1.9 -2.4 -1.9 -1.4 0 -3.2 -1 -4 -2.2 -1.5 -2.1 -1.6 -2.1 -3.6 -0.3 -1.7 1.5 -2 3 -2 10.2 0 8.3 0 8.3 -4 8.3 -3.6 0 -4 -0.2 -4 -2.5 0 -1.6 -0.6 -2.5 -1.5 -2.5 -0.8 0 -1.5 -0.4 -1.5 -1 0 -0.5 -1.1 -1 -2.5 -1 -3 0 -8.1 -2.4 -11.2 -5.3 -2 -1.7 -2.3 -3.1 -2.3 -9.1 -0.1 -4.3 -0.6 -8.1 -1.5 -9.6 -0.8 -1.4 -1.4 -4.2 -1.5 -6.2 0 -3.5 0.2 -3.8 2.9 -3.8 1.6 0 4.3 0.3 6 0.6 2.7 0.6 3.1 1 3.1 4 0 2.6 1.1 4.8 4.5 9 l4.5 5.5 0 -5.3 c0 -4.5 -0.5 -5.9 -3.1 -9.1 -2 -2.4 -2.9 -4.5 -2.7 -6.2 0.3 -2.6 0.3 -2.6 4.1 0.6 4 3.3 5.6 2.9 5.7 -1.3 0 -2.5 -2.1 -12.2 -2.9 -13 -0.6 -0.6 -10.3 3 -11.7 4.5 -0.4 0.3 -0.1 1.3 0.6 2.2 2.2 2.6 -4.3 1.9 -6.8 -0.8 -1.7 -1.8 -4.2 -9.8 -4.2 -13.3 0 -0.2 -2.9 -0.4 -6.4 -0.4 -7 0 -10.7 -2 -13.5 -7.4 -0.9 -1.6 -2.3 -2.6 -3.6 -2.6 -1.2 0 -3.5 -1 -4.9 -2.1 -2.5 -1.9 -2.7 -2.7 -2.4 -7.3 0.3 -6.2 -0.4 -7.6 -4.4 -7.6 -4.3 0 -9 -2.5 -10.9 -5.9 -1.8 -3.1 -5.3 -4.1 -14.6 -4.1 -4.2 0 -5.5 -0.4 -6.5 -2 -1 -1.6 -2.4 -2 -6.5 -2 -2.9 0 -5.3 0.5 -5.3 1 0 1.3 -7.5 1.3 -9.9 0.1 -1 -0.6 -5.3 -1.3 -9.7 -1.6 -4.3 -0.4 -10.2 -1.5 -12.9 -2.6 -5 -1.9 -5 -1.9 -5 -7.1 0 -5.2 0 -5.2 6.3 -8.5 4.9 -2.5 6.8 -3.1 8.2 -2.3 2.7 1.4 7.2 1.2 11.3 -0.5 4.6 -1.9 9.5 -1.9 14.1 0 2.8 1.2 4.5 1.3 7.3 0.6 3.3 -0.9 4.2 -0.7 9 2.2 11.4 6.8 11.5 6.9 17.5 6.4 5.5 -0.5 5.9 -0.3 12.7 4.4 3.8 2.7 7.6 4.9 8.4 4.9 2.8 0 4.5 2.9 5.8 10 1.3 7.6 3.5 10.7 12.9 17.8 2.6 2 4.9 4.8 5.5 6.6 1 2.9 1.3 3.1 5.5 2.8 6.5 -0.3 12.8 3.2 16 9 1.4 2.5 4.2 6.1 6.3 8 3 2.9 3.7 4.2 3.7 7.4 0 2.2 0.3 5.7 0.7 7.9 0.7 4 0.7 4 1.3 0.5 0.4 -3.1 0.9 -3.5 3.9 -3.8 3.6 -0.4 3.6 -0.3 1.5 -11.1 -0.7 -3.2 -0.6 -3.3 1.4 -2.2 2.7 1.4 3.8 3.5 4.6 8.9 0.3 2.4 1.4 5.2 2.4 6.2 1 1.1 2.3 3.9 3 6.4 0.6 2.5 2.1 5.5 3.1 6.5 1.7 1.7 1.9 3 1.6 8.8 -0.3 4.8 0 7.7 1 9.7 0.8 1.5 1.2 3.2 0.9 3.7 -0.3 0.5 0 0.9 0.6 0.9 0.9 0 1.1 2.9 0.8 10 -0.1 5.5 0 10 0.5 10 0.4 0 0.7 0.7 0.7 1.5 0 0.8 -0.6 1.5 -1.4 1.5 -2.2 0 -5.5 4.7 -6.2 8.9 -1 6.3 -1.5 7.1 -3.8 7.1 -1.3 0 -3.1 0.9 -4.1 2 -2.8 3 -9.7 2.8 -11.5 -0.4 -1.5 -2.9 -3.8 -2.4 -4.6 1 -0.5 1.9 -1.3 2.4 -3.9 2.4 -2.3 0 -3.5 -0.5 -3.9 -1.7z m3.3 -18 c-2 -7.4 -3.5 -5.9 -1.6 1.7 2.2 8.9 2.1 8.7 2.5 5.6 0.2 -1.6 -0.2 -4.9 -0.9 -7.3z m0.4 -32.5 c0.8 -0.5 0.6 -0.8 -0.5 -0.8 -1.5 0 -1.8 0.8 -1.6 4.8 0.1 4.7 0.1 4.7 0.5 0.7 0.3 -2.2 1 -4.3 1.6 -4.7z m20.7 -6.9 c0 -1.1 -0.7 -1.9 -1.7 -1.9 -1 0 -3.1 -0.7 -4.7 -1.5 -3.4 -1.8 -3.6 -1.8 -3.6 -0.5 0 0.5 0.5 0.9 1.2 0.8 0.6 -0.2 1.7 0.8 2.4 2.1 2.2 4.3 6.4 5 6.4 1z m-78.3 -77.5 c-0.7 -0.8 -8.7 -2.3 -8.7 -1.7 0 0.2 1 0.8 2.3 1.3 2.5 1 7.3 1.3 6.4 0.4z m-11.9 -10.9 c0.7 -1.4 1.2 -2.8 1.2 -3 0 -0.6 -7.7 -4.5 -9 -4.5 -1.6 0 -1.2 3 1.1 6.6 2.5 4 5.1 4.4 6.7 0.9z"/>
  <path d="M288.8 200.1 c-0.9 -1 -1.4 -2.2 -1.1 -2.5 0.4 -0.3 0.1 -0.6 -0.6 -0.6 -0.7 0 -0.9 -0.4 -0.6 -1 0.3 -0.5 0.1 -1 -0.5 -1 -0.6 0 -0.8 -0.4 -0.5 -1 0.3 -0.5 0.1 -1 -0.6 -1 -0.7 0 -1 -0.2 -0.7 -0.5 0.3 -0.3 -1.7 -2.7 -4.4 -5.4 -4.8 -4.5 -5 -5 -5.5 -11.1 -0.2 -3.6 -0.9 -7 -1.5 -7.7 -0.6 -0.7 -0.7 -2.5 -0.4 -3.9 0.5 -1.8 0.2 -3.2 -0.9 -4.4 -1.5 -1.6 -1.4 -1.8 1.6 -2.9 1.8 -0.6 4.5 -1.1 6 -1.1 2.5 0 2.9 0.5 3.9 4.3 0.5 2.3 2 6.1 3.2 8.5 1.8 3.6 2 5.3 1.5 11.8 -0.6 6.4 -0.4 8.1 1.4 11.5 1.1 2.2 1.9 5.4 1.7 7 -0.3 2.9 -0.3 2.9 -2 1z"/>
  <path d="M261.8 151.8 c-1.6 -1.1 -2.8 -2.6 -2.8 -3.4 0 -0.8 -0.5 -1.4 -1.1 -1.4 -0.5 0 -0.7 -0.4 -0.4 -1 0.3 -0.5 0.1 -1 -0.5 -1 -0.6 0 -0.8 -0.4 -0.5 -1 0.3 -0.5 0.1 -1 -0.4 -1 -0.6 0 -1 -0.3 -1 -0.7 0.4 -2.2 -0.3 -3.5 -2.6 -4.5 -1.5 -0.7 -3.1 -2.8 -4.1 -5.5 -2.1 -5.4 -5.4 -6.7 -8.3 -3.2 -1.9 2.4 -1.9 2.4 -4.4 0.1 -2 -1.9 -3.2 -2.3 -5.7 -1.7 -2.4 0.5 -4.4 0 -8.7 -2.1 -5.3 -2.7 -5.6 -2.8 -8.4 -1.2 -2.9 1.7 -2.9 1.7 -2.9 -1.6 0 -3.3 0 -3.3 8.3 -3.9 14.5 -1.2 19.6 -0.9 22.3 1.2 1.4 1.1 4.2 2.2 6.4 2.6 3.7 0.6 4.2 1.1 7 7 1.6 3.4 3 7 3 7.9 0 0.9 0.4 1.6 0.9 1.6 0.5 0 1.5 1.5 2.2 3.3 0.7 1.7 2.2 3.9 3.2 4.7 1.2 1 1.8 2.5 1.5 4.2 -0.3 2.7 -0.3 2.7 -3 0.6z"/>
  <path d="M186 122.2 c0 -3.1 0.2 -3.2 4 -3.2 3.3 0 4 0.3 4 2 0 1.5 -0.7 2 -2.8 2 -1.5 0 -3.3 0.5 -4 1.2 -0.9 0.9 -1.2 0.5 -1.2 -2z"/>
  <path d="M200.5 124 c-0.3 -0.5 -1.7 -1 -3.1 -1 -1.7 0 -2.4 -0.5 -2.4 -2 0 -1.6 0.7 -2 3.5 -2 1.9 0 3.5 0.5 3.5 1 0 0.6 0.9 1 2 1 1.3 0 2 0.7 2 2 0 1.5 -0.7 2 -2.4 2 -1.4 0 -2.8 -0.4 -3.1 -1z"/>
  <path d="M312.3 104.8 c-2.4 -3.2 -2.4 -4.1 0 -1.9 1.5 1.4 2.7 2.6 2.7 2.8 0 0.8 -1.9 0.2 -2.7 -0.9z"/>
  <path d="M306.2 98.3 c-3.4 -1.3 -13.8 -13.3 -11.6 -13.3 0.9 0 9.5 8.4 11.5 11.2 1.1 1.5 1.9 2.8 1.7 2.7 -0.2 0 -0.9 -0.3 -1.6 -0.6z"/>
 </g>
 <g fill="#d62440">
  <path d="M80.6 263.1 c-1.3 -1.5 -2.6 -1.8 -5.2 -1.4 -3 0.5 -3.4 0.3 -3.4 -1.6 0 -1.9 0.6 -2.1 5.5 -2.1 5.5 0 5.5 0 5.5 3.5 0 4.1 -0.1 4.1 -2.4 1.6z"/>
  <path d="M111.5 256 c-0.7 -5 -0.7 -5 -4.5 -5 -3.7 0 -3.7 -0.1 -4.4 -4.6 -0.3 -2.6 -0.6 -7.3 -0.6 -10.4 0 -3.2 -0.7 -7.4 -1.5 -9.4 -1.9 -4.4 -4.5 -17.8 -4.5 -22.7 0 -4.2 1.8 -9.9 3.1 -9.9 0.5 0 0.9 -0.9 0.9 -2 0 -1.1 0.5 -2 1 -2 0.6 0 1.6 -1.2 2.3 -2.7 1.3 -3.1 3.2 -4.9 6.4 -6.3 2.3 -0.9 2.7 -2.7 3.9 -15.7 0.6 -7.3 0.6 -7.3 3.7 -7.3 2.4 0 2.8 0.3 1.9 1.2 -1.9 1.9 -1.4 3.7 1.4 4.4 2.3 0.6 2.5 1 2 3.7 -0.3 1.6 -0.6 3.8 -0.6 4.9 0 1.1 -1.3 3.3 -2.9 4.9 -2.7 2.7 -3 3.7 -3.4 10.7 -0.4 9.1 -0.9 10.2 -4.6 10.2 -5.9 0 -9.2 1.2 -10.2 3.8 -1.3 3.3 1.4 17.2 4.6 23.7 1.5 3.1 2.2 5.9 1.8 7.3 -0.3 1.2 -0.2 4.3 0.2 6.8 0.7 4.7 0.7 4.7 3.2 2.1 2.6 -2.5 2.6 -2.5 0.9 -6.7 -0.9 -2.4 -1.5 -4.4 -1.3 -4.6 0.2 -0.3 1.7 0.2 3.3 1.1 1.6 0.8 2.3 1.5 1.5 1.5 -1 0 -1.2 1.1 -0.8 4.6 0.2 2.6 1 4.9 1.6 5.3 0.7 0.5 0.7 1.8 0 4.5 -0.6 2.1 -0.8 6 -0.4 8.7 0.6 4.5 0.5 4.9 -1.3 4.9 -1.7 0 -2.1 -0.9 -2.7 -5z"/>
  <path d="M70.3 251.5 c-1.5 -1.6 -1.7 -7.3 -0.4 -9.3 0.5 -0.8 2.2 -1.2 4.2 -1 3.4 0.3 3.4 0.3 3.7 6.1 0.3 5.7 0.3 5.7 -3 5.7 -1.8 -0.1 -3.9 -0.7 -4.5 -1.5z"/>
  <path d="M51.4 244.2 c-0.6 -0.4 -1.3 -3.5 -1.6 -6.9 -0.4 -5.9 -0.3 -6.3 1.7 -6.3 1.2 0 3.5 1.5 5.3 3.3 2.4 2.5 3.2 4.2 3.2 7 0 3.6 -0.1 3.7 -3.7 3.7 -2.1 0 -4.3 -0.4 -4.9 -0.8z"/>
  <path d="M63.5 230 c-1 -1.1 -2.4 -2 -3.2 -2 -1 0 -1.3 -1.1 -1.1 -4.2 0.3 -4.1 0.5 -4.3 3.7 -4.6 4.8 -0.5 9.1 3.8 9.1 9 0 3.6 -0.1 3.8 -3.3 3.8 -2.1 0 -4.1 -0.8 -5.2 -2z"/>
  <path d="M49.1 169.8 c0.6 -11.5 3.4 -27.9 5.4 -31.8 0.7 -1.4 1.6 -4 2 -5.9 0.4 -1.8 1.5 -4.8 2.5 -6.5 1 -1.7 2.3 -5.5 3 -8.5 1.2 -5.1 2.1 -6.3 13.3 -17.2 12 -11.7 12 -11.7 11.3 -16.8 -0.6 -4.9 -0.6 -5.2 2.1 -6.2 1.5 -0.5 3.7 -0.8 4.9 -0.5 3.1 0.8 8.9 -0.4 7.2 -1.5 -1 -0.7 -0.9 -0.9 0.5 -0.9 2.3 0 2.2 -2.9 -0.3 -6 -2.7 -3.4 -2.5 -5.6 0.6 -8.3 1.5 -1.2 3.3 -2.8 4 -3.5 1 -1 2.5 -0.9 7.6 0.3 7 1.6 14.6 1.9 16.7 0.6 2 -1.3 5.1 -0.1 5.1 2 0 1.1 -0.5 1.9 -1 1.9 -1.4 0 -4.8 8 -5.6 13 -0.6 4 -3.7 7.1 -13.6 13.8 -3 2.1 -4.8 4.1 -5.2 6 -0.5 2.2 -1.6 3.1 -5.4 4.5 -2.6 0.9 -6.5 2.8 -8.7 4.1 -4 2.5 -4 2.5 1.3 4.7 4.7 2 5.2 2.5 5.2 5.3 0 2.4 -1.2 4.6 -4.8 8.7 -5.6 6.3 -9.7 14.4 -10.7 21.2 -0.7 4.6 -0.8 4.7 -4.5 4.7 -2.1 0 -4.3 -0.7 -5 -1.5 -1 -1.3 -2 -0.6 -6.1 4.6 -2.8 3.5 -4.9 7.2 -4.9 8.5 0 2.2 0.4 2.4 4.8 2.4 6.6 0 10.2 3.6 10.2 10.2 0 3.3 -0.5 4.8 -1.6 5.2 -2.5 1 -7.4 0.7 -7.4 -0.4 0 -0.5 -0.7 -1 -1.5 -1 -0.9 0 -1.5 -0.9 -1.5 -2.5 0 -3.7 -2 -3.1 -9.5 2.5 -3.6 2.8 -7.6 5 -8.8 5 -2.2 0 -2.2 -0.2 -1.6 -10.2z"/>
  <path d="M80 156.6 c0 -5.4 0.8 -6.6 4.6 -6.6 3.4 0 3.4 0 3.4 5 0 5 0 5 -4 5 -3.9 0 -4 -0.1 -4 -3.4z"/>
 </g>
 <g fill="#a67c0e">
  <path d="M249.2 333.2 c-1.8 -0.9 -3.1 -2.1 -2.8 -2.7 0.2 -0.7 0.7 -3.8 1.1 -7 0.8 -5.8 0.8 -5.8 -3.1 -3.5 -2.2 1.3 -5.4 3.6 -7.2 5.2 -1.8 1.5 -3.5 2.8 -3.8 2.8 -0.8 0 -5.8 -3.4 -6.5 -4.4 -0.4 -0.5 -1.2 -0.5 -1.8 -0.2 -0.7 0.5 -1.1 -0.1 -1.1 -1.3 0 -1.6 0.6 -2.1 2.5 -2.1 2.1 0 2.5 -0.5 2.5 -3 0 -2.3 -0.4 -3 -2 -3 -3.6 0 -2.1 -2.5 2.6 -4.5 4.8 -2 6.4 -3.9 6.3 -7.7 0 -2.3 0 -2.3 -0.9 -0.1 -1.1 2.7 -2.3 2.9 -4 0.8 -1 -1.2 -0.3 -1.8 4.5 -4 6.9 -3 8.9 -3.1 15.5 -0.6 5 1.9 5 1.9 6.5 -0.2 0.8 -1.1 1.6 -1.9 1.7 -1.6 2.5 3.9 4.2 7 5.5 9.9 1.3 3.1 1.3 3.7 -0.1 6.1 -2.2 3.7 -2 6.4 0.6 8.1 2.6 1.7 1.9 4.8 -1.1 4.8 -1.1 0 -3.8 2.1 -6.2 5 -2.3 2.8 -4.5 5 -4.8 4.9 -0.3 0 -2.1 -0.8 -3.9 -1.7z"/>
 </g>
 <g fill="#d9400a">
  <path d="M158.2 338.5 c-1.3 -2.1 -3.1 -3.7 -4.9 -4.1 -4.7 -1 -4.9 -1.2 -1.5 -1.3 4.3 -0.1 4.3 -3 0.1 -6.6 -3.8 -3.2 -10.9 -6.9 -11.7 -6.1 -0.3 0.3 -0.1 2.7 0.4 5.4 0.8 4.2 1.3 4.8 4.3 5.8 2.4 0.8 2.9 1.3 1.8 1.7 -0.9 0.3 -3 0.2 -4.6 -0.4 -2.3 -0.8 -3.6 -0.7 -6.1 0.6 -2.7 1.4 -3.4 1.4 -4.1 0.3 -3.6 -6.1 -6.4 -8.8 -9.5 -8.8 -2.6 0 -3.6 -0.7 -5.9 -4.1 -2.4 -3.8 -3 -4.1 -6 -3.6 -3 0.5 -3.5 0.3 -4.4 -2.5 -1.7 -4.9 -1.4 -5.8 1.9 -5.8 2.3 0 3 -0.4 3 -2 0 -1.4 -1.4 -2.7 -4.7 -4.2 -2.6 -1.3 -4.9 -2.9 -5.1 -3.7 -0.8 -2.6 9.3 -0.7 16.8 3.1 6.8 3.5 6.8 3.5 7.9 1.1 0.6 -1.3 1.1 -3.5 1.1 -4.8 0 -3 1.3 -3.2 3.1 -0.4 1.4 2 1.4 2 6.3 -0.2 4.1 -1.8 5.7 -2 9.4 -1.3 2.4 0.5 4.2 1.1 4 1.4 -0.2 0.3 0.6 1.9 1.8 3.5 1.1 1.7 2.4 3.8 2.7 4.7 0.9 2.4 4.4 2.3 5.7 -0.3 0.9 -1.5 0.8 -2.4 -0.1 -3.5 -0.9 -1.1 -0.8 -1.4 0.5 -1.4 1.1 0 1.6 0.9 1.6 3.3 0.1 4.3 1.8 6.4 7 8.2 6.1 2.1 14.1 1.9 18.3 -0.5 3.9 -2.3 10.7 -2.2 13.5 0.3 1.7 1.5 7.3 2.7 12.9 2.9 1.6 0.1 5 -0.9 7.4 -2.1 2.8 -1.4 5.8 -2.1 7.9 -1.9 3 0.3 3.4 0.6 3.3 3.1 -0.1 1.5 -0.1 4.3 -0.2 6.2 -0.1 3.3 -0.2 3.4 -3.1 2.9 -2.1 -0.5 -4.3 0.1 -8.2 2.3 -2.9 1.6 -8.4 4 -12.1 5.3 -6.4 2.3 -6.9 2.3 -9.5 0.8 -3.4 -2 -8.5 -1.7 -11.1 0.6 -2 1.8 -2.2 1.8 -7 -0.3 -8.5 -3.6 -13.5 -2.2 -17.1 5 -2.7 5.2 -3.5 5.4 -5.8 1.4z m-14.4 -36.5 c-1.4 -2.2 -1.7 -2.3 -3.7 -1.1 -1.9 1.2 -0.4 3.1 2.5 3.1 2.2 0 2.3 -0.2 1.2 -2z"/>
 </g>
 <g fill="#378f58">
  <path d="M321.9 278.3 c-0.6 -1.6 -2 -5.5 -3.1 -8.8 -2.6 -7.7 -3.3 -8.5 -7.3 -8.5 -3.8 0 -6.6 2.9 -8.5 8.6 -1.1 3.2 -1.3 3.3 -3.3 1.9 -3.3 -2.3 -5.2 -1.8 -9.4 2.1 -3.3 3.2 -4.6 3.7 -9.9 4.2 -6.2 0.5 -6.2 0.5 -7.4 -3.2 -0.6 -1.9 -0.9 -4.4 -0.6 -5.3 0.3 -1 0.6 -4.7 0.8 -8.2 0.3 -6.2 0.5 -6.6 3.9 -9 3.6 -2.5 3.6 -2.7 3.7 -9.5 0.1 -8.1 1 -12.6 2.4 -12.6 0.6 0 0.8 -0.9 0.5 -2 -0.3 -1.1 -0.1 -2 0.5 -2 0.5 0 0.7 -0.4 0.4 -0.9 -0.3 -0.5 0.1 -1.2 1 -1.5 1 -0.4 1.4 -1.4 1.1 -2.6 -0.3 -1.1 -0.1 -2 0.5 -2 0.6 0 0.8 -0.9 0.5 -2 -0.3 -1.1 -0.1 -2 0.4 -2 0.5 0 0.9 -0.7 0.9 -1.5 0 -0.8 0.7 -1.5 1.6 -1.5 1.4 0 1.6 0.8 1.1 5.2 -0.4 2.8 -1 5.4 -1.5 5.7 -0.5 0.3 -1.1 1.8 -1.4 3.2 -0.4 2.1 0.2 2.9 3.4 4.8 3.8 2.2 3.8 2.2 5 -2.4 1.2 -4.4 1.3 -4.5 5.3 -4.5 3.1 0 4.7 0.6 6.5 2.5 2.4 2.6 4 2.5 4 -0.4 0 -0.9 1.7 -3.4 3.8 -5.4 3.1 -3.1 4.5 -3.7 8 -3.7 3.7 0 4.7 0.5 8.3 4.5 2.3 2.5 4.8 4.5 5.5 4.5 1.2 0 1.2 0.6 -0.1 3.6 -1.9 4.6 -1.9 10.1 0 13.8 0.8 1.5 1.5 3.9 1.5 5.1 0 5.1 -2.5 12.8 -5.1 15.6 -1.4 1.5 -2.4 3.1 -2.1 3.4 0.3 0.3 0 0.5 -0.7 0.5 -0.7 0 -0.9 0.5 -0.6 1 0.3 0.6 0.1 1 -0.6 1 -0.6 0 -0.9 0.8 -0.6 2 0.3 1.1 0.1 2 -0.5 2 -0.6 0 -0.8 0.7 -0.4 1.5 0.3 0.8 0 1.5 -0.6 1.5 -0.6 0 -0.8 0.3 -0.5 0.7 0.8 0.7 -2.3 3.2 -4.1 3.3 -0.7 0 -1.7 -1.2 -2.3 -2.7z m-25.3 -27.1 c1 -4.9 -0.7 -5.8 -4.1 -2.2 -2.8 3 -2.8 3 -0.9 7.1 1.8 4.2 1.8 4.2 3.1 1.3 0.7 -1.6 1.5 -4.4 1.9 -6.2z"/>
 </g>
 <g fill="#678a12">
  <path d="M263.6 321.5 c-0.9 -1.3 -1.6 -3.2 -1.5 -4.2 0 -1.5 0.2 -1.4 0.9 0.3 0.4 1.2 1.5 2.4 2.4 2.7 1.7 0.7 2.3 3.7 0.7 3.7 -0.5 0 -1.6 -1.1 -2.5 -2.5z"/>
  <path d="M262.6 311.5 c-0.4 -1.7 -1.9 -4.8 -3.3 -6.9 -2.6 -4 -2.6 -4 -0.3 -11 2.8 -8.9 4.1 -11.3 9.6 -18.8 2.5 -3.4 4.4 -7.2 4.4 -8.7 0.1 -1.9 0.6 -1.2 2 2.8 1.1 3 2.2 5.6 2.4 5.8 0.7 0.7 11.5 -1.7 12.1 -2.7 0.3 -0.5 1.9 -1.6 3.6 -2.4 2.8 -1.4 3.4 -1.4 6 0 1.6 0.8 2.9 1.9 2.9 2.5 0 0.5 -1 0.3 -2.2 -0.5 -3.1 -2.2 -4.6 -2 -8.5 1 -3.3 2.5 -3.3 2.5 -2.7 11.9 0.9 12.6 -1.2 17.5 -7.4 17.5 -2.3 0 -16.8 9.3 -17.4 11.1 -0.3 0.8 -0.8 0 -1.2 -1.6z"/>
  <path d="M291.4 267.4 c0.3 -0.9 0.6 -1.8 0.6 -2 0 -0.2 0.7 -0.4 1.5 -0.4 1.3 0 1.4 0.4 0.5 2 -1.3 2.4 -3.5 2.7 -2.6 0.4z"/>
 </g>
 <g fill="#cc061f">
  <path d="M193.1 325.2 c-0.9 -1.7 -0.7 -2 1.4 -2.4 2.2 -0.5 2.3 -0.3 1.3 1.6 -1.5 3 -1.5 3 -2.7 0.8z"/>
  <path d="M155 324.3 c0 -0.5 0.5 -2.6 1 -4.8 0.6 -2.8 0.5 -4.7 -0.4 -6.5 -1.2 -2.5 -1.2 -2.5 2.8 -2.2 5.6 0.5 6.1 1.3 4.5 6.7 -1 3.3 -2.2 5.1 -4.1 6.1 -3.1 1.6 -3.8 1.7 -3.8 0.7z"/>
  <path d="M121.2 309 c-4.9 -3.7 -14.5 -8 -17.8 -8 -0.8 0 -2.4 -1.9 -3.5 -4.3 -1.7 -3.4 -3.2 -4.8 -8.2 -7.2 -6.2 -3.1 -6.2 -3.1 -6.3 -9.5 -0.2 -7.8 -1.7 -13.7 -4.4 -16.9 -1.7 -1.9 -2.6 -2.2 -5.5 -1.7 -3 0.6 -4.1 0.3 -6.6 -1.8 -7.9 -6.7 -12.4 -2.9 -8.3 7 0.9 2.2 2.3 4.7 3.1 5.6 0.8 0.9 1.2 2.2 0.7 2.9 -0.5 0.8 -0.3 1 0.5 0.4 0.9 -0.5 1.1 0.1 0.7 2.5 -0.2 1.7 -0.6 3.4 -0.9 3.6 -0.7 0.7 -5.7 -3.7 -5.7 -5.1 0 -0.7 -2 -5.3 -4.4 -10.1 -4.4 -9 -6 -16.6 -4.9 -22.8 0.5 -2.6 0.9 -2.8 3.9 -2.3 1.9 0.3 3.4 0.3 3.4 -0.1 0 -0.3 -1.7 -2.4 -3.8 -4.7 -6.6 -6.9 -7.4 -14.1 -5.6 -46.9 0.6 -9.5 0.9 -11.2 2.8 -12.7 1.1 -1 4.6 -3.8 7.6 -6.2 4.8 -3.8 5.5 -4.7 5.2 -7.5 -0.3 -3.2 -0.3 -3.2 5.2 -3.2 4.2 0 5.6 0.4 5.6 1.4 0 0.8 0.3 2.3 0.7 3.3 0.6 1.6 0.5 1.6 -1 0.5 -1.8 -1.5 -6.2 -1.3 -6.2 0.3 0 0.6 1 1.1 2.3 1.3 1.6 0.3 2.2 1 2.2 2.8 0 1.5 0.6 2.4 1.5 2.4 0.8 0 1.5 0.4 1.5 1 0 0.5 0.7 0.7 1.5 0.4 0.8 -0.4 1.5 -1.2 1.5 -2 0 -0.8 0.5 -1.4 1 -1.4 1.7 0 1.1 6.4 -0.9 9.4 -1.8 2.7 -1.8 3.3 -0.5 6.4 1.9 4.6 1.8 9 -0.4 13.4 -1.6 3.1 -1.7 3.9 -0.6 5.9 1.6 2.9 1.7 10.7 0.3 16.8 -1 4.7 -0.6 6.2 1.3 4.3 0.7 -0.7 3.1 -1.2 5.4 -1.2 4.1 0 4.1 0 6.4 6.2 1.9 5.2 2.2 7.5 1.7 13.8 -0.5 5.9 -0.2 8.3 1.1 11.4 1.7 3.9 1.7 3.9 5 0.2 1.7 -2 3.4 -4.9 3.8 -6.4 0.3 -1.5 0.7 -3.3 1 -3.9 0.5 -1.8 3.4 -1.6 3.4 0.2 0 2.4 1.9 1.8 4.7 -1.5 2.7 -3.2 3.1 -3.4 5.2 -2.1 0.8 0.5 1 1.4 0.5 2.2 -0.8 1.3 -1.4 3.8 -1.6 6.9 0 0.8 0.5 5.7 1.3 10.9 1.2 8.8 1.6 9.7 6 15.3 3.6 4.4 5 7.1 5.5 10.6 0.4 2.6 1.3 6.4 2 8.5 1.2 3.3 1.1 4.4 -0.1 7.4 -0.8 1.9 -1.5 4.4 -1.5 5.4 0 3.1 -1.5 2.9 -6.8 -1.1z m-24.2 -34.9 c-1.1 -2.2 -5.1 -3.7 -7.5 -2.7 -2.5 0.9 -1.7 2.3 2.4 3.9 2.2 0.9 4.3 2.2 4.7 2.9 1.4 2.1 1.7 -1.7 0.4 -4.1z m-22.5 -28.9 c-0.6 -1.6 -0.7 -1.6 -1.6 0 -0.7 1.3 -0.6 2.2 0.3 3.2 1.1 1.2 1.3 1.2 1.6 -0.1 0.2 -0.8 0.1 -2.2 -0.3 -3.1z m-8 -20.2 c-1.5 -1.6 -3.2 -2.7 -3.7 -2.4 -1.3 0.8 -0.9 2.4 0.5 2.4 0.8 0 2.2 0.9 3.2 2 1 1.1 2.1 1.8 2.3 1.5 0.3 -0.3 -0.7 -1.9 -2.3 -3.5z m-2 -20.8 c-0.8 -0.9 -2.5 6.9 -1.8 8 0.5 0.8 1 -0.4 1.4 -3.2 0.4 -2.5 0.5 -4.6 0.4 -4.8z"/>
  <path d="M135.6 305.1 c-3.9 -4 -3.9 -4 -0.5 -6 1.9 -1.2 5 -2.1 6.9 -2.1 3 0 3.9 0.6 6.3 4.4 1.5 2.4 2.7 4.5 2.7 4.8 0 0.3 -1.9 0.8 -4.2 1.1 -2.4 0.2 -5 0.8 -5.8 1.1 -1 0.4 -2.9 -0.7 -5.4 -3.3z"/>
 </g>
 <g fill="#006190">
  <path d="M289.5 217 c-0.3 -0.6 -0.3 -4.1 0 -7.8 0.7 -6.5 0.5 -7.2 -3 -14.2 -3.7 -7.3 -3.7 -7.4 -2.5 -13.2 1.2 -5.3 1.1 -6.1 -0.9 -10.1 -1.1 -2.3 -2.6 -6.1 -3.1 -8.5 -0.6 -2.3 -1.5 -4 -2 -3.7 -0.5 0.3 -0.7 1.3 -0.4 2.3 0.5 1.5 0.4 1.5 -0.8 0.2 -0.7 -0.9 -2 -1.4 -2.8 -1.3 -0.8 0.2 -4.5 -2.5 -8.2 -5.9 -5.6 -5.2 -7.7 -8.2 -12.4 -17.5 -5.5 -10.9 -5.7 -11.2 -9.5 -11.8 -2.1 -0.4 -5 -1.6 -6.4 -2.7 -2.2 -1.7 -3.5 -1.9 -8.8 -1.3 -3.4 0.3 -8.3 0.6 -11 0.6 -2.6 0 -4.5 0.4 -4.3 0.8 0.3 0.4 -0.5 1.4 -1.9 2.1 -2.3 1.2 -4.9 1 -10.2 -1.1 -4.4 -1.7 -11.5 -1.5 -14.4 0.4 -2.2 1.4 -3.4 1.6 -6.9 0.8 -4 -0.9 -13.7 -0.1 -16 1.4 -0.6 0.3 -1 -0.5 -1 -1.8 0 -2 0.7 -2.6 4.5 -3.7 2.7 -0.8 6.8 -1 10.2 -0.6 5.2 0.5 6 0.3 7.4 -1.7 0.9 -1.2 1.9 -3.3 2.4 -4.7 1.5 -5.1 3.4 -7 6.9 -7 4.1 0 6.2 2.2 7.5 7.9 0.9 4.3 2.3 6.1 4.8 6.1 1.6 0 2.6 -1.8 3.3 -6 0.5 -3.2 0.8 -3.5 4.2 -3.8 2.7 -0.2 4.8 0.4 7.5 2.3 3.7 2.5 3.8 2.5 4.1 0.5 0.9 -5.9 8.1 -8.7 14 -5.6 1.5 0.8 5.4 2.4 8.7 3.6 3.3 1.2 7 2.6 8.2 3 1.2 0.5 3.5 2.9 5 5.2 1.5 2.4 3 4.5 3.3 4.8 0.3 0.3 1.1 1.7 1.9 3.3 1.8 3.3 2.6 2.4 4.2 -4.8 1 -4.4 1.7 -5.4 5.3 -7.5 2.2 -1.3 3.5 -2.5 2.8 -2.8 -0.6 -0.2 -1.2 -1.1 -1.2 -2 0 -1.2 -0.3 -1.3 -1.2 -0.4 -0.7 0.7 -2 1.2 -3 1.2 -1 0 -1.8 0.5 -1.8 1 0 0.6 -1.4 1 -3.1 1 -2.4 0 -4.4 -1.3 -9 -5.7 -5.6 -5.3 -5.9 -5.9 -5.9 -10.4 0 -6.1 -2.2 -7.9 -9.8 -7.9 -6 0 -11.3 -1.9 -13.3 -4.8 -0.8 -1.1 -3.5 -2.9 -5.9 -4.1 -3.7 -1.7 -5.2 -3.3 -7.8 -8.1 -1.8 -3.3 -3.6 -6.1 -4 -6.4 -0.4 -0.2 -1.8 0.5 -3.1 1.5 -2.4 2 -2.4 2 0.8 5.9 2.1 2.7 3.1 5 3.1 7.4 0 3.2 -0.4 3.6 -5.2 5.9 -12.3 5.7 -15.5 5.8 -27.3 0.8 -6.7 -2.9 -7 -3.1 -7.3 -6.7 -0.3 -3 0.2 -4.3 2.9 -7 2.8 -2.8 4 -3.4 7.7 -3.4 2.4 0 5.2 0.5 6.4 1.1 1.4 0.8 2.8 0.7 4.9 -0.2 1.6 -0.6 2.8 -1.4 2.7 -1.8 -0.2 -0.3 -1.2 -2.3 -2.3 -4.3 -1.9 -3.8 -1.9 -3.8 -8.2 -3.8 -3.5 0 -6.3 0.4 -6.3 1 0 0.6 -1.1 1 -2.5 1 -4.2 0 -6.9 1.9 -10.4 7.6 -3.1 4.9 -3.7 5.4 -7 5.4 -3.3 0 -3.8 -0.4 -4.9 -3.3 -0.7 -1.8 -2.1 -4.3 -3.3 -5.5 -2.1 -2.3 -2.1 -2.3 1.6 -6.3 1.9 -2.2 4.3 -5.5 5.2 -7.4 1.6 -3.4 1.6 -3.4 6.7 -1.3 2.8 1.1 6.6 2.2 8.5 2.4 8.3 0.7 13.8 1.6 16.5 2.7 2.3 0.8 3.1 0.8 3.4 -0.1 0.2 -0.8 3.1 -1.2 8.5 -1.2 7.1 0 8.4 0.3 9.5 2 1 1.6 2.3 2 6.5 2 9.2 0 12.8 1 14.5 4 2.1 3.6 4.5 5 9.5 5.6 6.1 0.8 7 1.9 6.4 8.1 -0.5 4.8 -0.3 5.5 2 7.3 3.6 2.8 4.8 2.5 7.4 -1.6 1.8 -3 2 -4 1.1 -5.5 -1.6 -2.5 -1.5 -2.9 0.6 -2.9 0.9 0 2.3 0.9 3 2 0.8 1.3 0.8 2 0.2 2 -0.6 0 -2 2.1 -3.1 4.6 -2 4.5 -2 4.5 0.6 7.9 3.7 4.9 5.9 5.8 12 5 3.2 -0.4 5.6 -0.2 5.9 0.4 0.3 0.5 1.1 3.3 1.6 6.2 0.9 4.7 1.9 6.1 10.3 14.8 6 6.2 9.6 10.7 9.9 12.5 0.7 3.8 -0.2 14.5 -1.3 15.2 -1.2 0.7 -1.1 10.4 0 10.4 0.5 0 1.1 1 1.3 2.2 0.2 1.2 0.8 2.3 1.4 2.5 0.7 0.2 1.1 -1.6 1.2 -5.2 0 -3 -0.3 -5.5 -0.7 -5.5 -0.4 0 -0.8 -0.7 -0.8 -1.5 0 -1.9 6.4 -9.5 8.1 -9.5 0.6 0 3.2 2 5.6 4.5 4.4 4.5 4.4 4.5 0.7 4.5 -2 0 -3.7 -0.4 -3.7 -1 0 -1.8 -2.9 -1 -4 1.1 -1 1.7 -0.6 2.5 3.2 5.9 3 2.7 5.6 4.1 8.6 4.6 3 0.4 4.2 1.1 4.2 2.3 0 3.3 -1.6 4.4 -5.4 3.7 -2.8 -0.5 -4.6 -0.2 -7.6 1.5 -2.2 1.3 -4 2.9 -4 3.7 0 0.8 1.3 3.1 3 5.2 2.1 2.6 2.9 4.7 2.7 6.9 -0.1 1.7 -0.6 3.1 -1.1 3.1 -0.4 0 -0.6 0.7 -0.2 1.5 0.3 0.8 0.1 1.5 -0.5 1.5 -0.5 0 -0.7 1.1 -0.5 2.4 0.6 3.2 4.8 9.6 6.4 9.6 0.6 0 1.2 1.1 1.2 2.5 0 1.4 -0.4 2.5 -1 2.5 -0.5 0 -1 0.7 -1 1.5 0 1 -1 1.5 -3 1.5 -2.5 0 -3 0.4 -3 2.5 0 2.4 -0.2 2.5 -7.5 2.5 -6.8 0 -7.5 0.2 -7.5 2 0 1.6 -0.7 2 -3.4 2 -1.9 0 -3.8 -0.5 -4.1 -1z m17.6 -20 c0.5 0 0.8 -0.3 0.7 -0.7 0 -0.5 0.2 -1.6 0.6 -2.6 1.2 -2.5 0.1 -5.7 -3.9 -11.2 -3.6 -5 -3.6 -5 -3.3 0.7 0.2 3.2 0.6 5.8 1 5.8 0.3 0 0.6 1.9 0.6 4.3 -0.1 2.3 0.3 5.3 0.7 6.7 0.8 2.5 0.8 2.5 1.7 -0.2 0.5 -1.6 1.4 -2.8 1.9 -2.8z m-7.9 -31.7 c-0.2 -2.4 -0.8 -4.3 -1.2 -4.3 -0.5 0 -2.5 2.3 -4.6 5.1 -3 4.1 -3.5 5.3 -2.3 5.9 0.8 0.5 2.3 1.5 3.3 2.3 1.8 1.3 2.1 1.2 3.6 -1.7 1.1 -2 1.5 -4.6 1.2 -7.3z m-3.2 -14.7 c0 -3.6 -0.7 -5.3 -4 -9.4 -2.1 -2.8 -4.3 -5.3 -4.9 -5.6 -0.5 -0.4 -0.7 -2.1 -0.4 -4 0.5 -3 0.3 -3.4 -2.3 -3.9 -3.7 -0.7 -3.9 -0.5 -2 3.2 0.9 1.6 1.6 4.6 1.6 6.6 0 3.1 -0.3 3.5 -2.5 3.5 -1.9 0 -2.5 -0.5 -2.5 -2.2 0 -2.1 -0.1 -2.2 -1.7 -0.5 -1.7 1.7 -1.7 1.9 0.1 3.3 1.1 0.8 3 1.4 4.3 1.4 1.7 0 2.3 0.6 2.3 2.3 0 2.6 2.8 5.6 7.5 8 4.3 2.3 4.5 2.2 4.5 -2.7z"/>
  <path d="M332 205.5 c0 -1 -1.1 -1.5 -3.5 -1.5 -3.3 0 -3.5 -0.2 -3.5 -3.5 0 -1.9 0.4 -3.5 0.9 -3.5 0.5 0 2.5 -1.6 4.4 -3.5 2.7 -2.7 4.3 -3.5 7 -3.5 3.5 0 3.5 0 4.2 7.4 0.4 4.1 0.4 7.9 0.1 8.5 -0.4 0.6 -2.7 1.1 -5.2 1.1 -3.2 0 -4.4 -0.4 -4.4 -1.5z"/>
  <path d="M274.2 166 c0 -1.9 0.2 -2.7 0.5 -1.7 0.2 0.9 0.2 2.5 0 3.5 -0.3 0.9 -0.5 0.1 -0.5 -1.8z"/>
  <path d="M323 154 c0 -3.8 0.2 -4 2 -3 1.3 0.7 2 2.1 2 4 0 2.3 -0.4 3 -2 3 -1.7 0 -2 -0.7 -2 -4z"/>
  <path d="M306.3 128.3 c-2.9 -0.6 -2.9 -2.1 0.2 -5.5 2.7 -3.2 3.5 -3.4 3.5 -1.3 0 0.8 0.5 1.5 1.2 1.5 0.9 0 0.9 0.3 0 1.2 -0.7 0.7 -1.2 2 -1.2 3 0 1 -0.3 1.7 -0.7 1.7 -0.5 -0.1 -1.8 -0.4 -3 -0.6z"/>
 </g>
 <g fill="#8e052f">
  <path d="M89.8 259.3 c-2.4 -5.3 -2.9 -7.4 -2.3 -10.2 0.4 -2 0.9 -4.8 1.2 -6.2 0.6 -3.2 -3.5 -14.9 -5.2 -14.9 -0.6 0 -2.2 1.1 -3.5 2.5 -3.2 3.4 -4.4 3.2 -7.3 -1.7 -2.5 -4.2 -2.5 -4.4 -0.7 -6.3 1 -1.1 2.1 -4.1 2.5 -6.6 0.5 -3.7 0.2 -5.5 -1.5 -8.9 -2.2 -4.3 -2.2 -4.3 0.4 -9.4 2.6 -5.1 2.6 -5.1 0.5 -10.5 -2 -5.4 -2 -5.4 1 -10.3 1.7 -2.7 3.1 -5.5 3.1 -6.3 0 -0.7 -1.6 -2.7 -3.5 -4.4 -3 -2.6 -3.9 -2.9 -6.2 -2 -2 0.7 -3 0.6 -3.9 -0.3 -1.7 -1.8 -2.9 -10.8 -1.4 -10.8 0.6 0 0.8 -0.4 0.5 -1 -0.3 -0.5 -0.2 -1 0.4 -1 0.5 0 3.3 -3 6.2 -6.6 5.2 -6.5 5.2 -6.5 8.3 -3.5 1.8 1.7 3.5 3.1 3.8 3.1 0.3 0 0.9 -2.1 1.3 -4.7 1 -6.8 5.1 -14.9 10.7 -21.3 4.9 -5.5 4.9 -5.5 -1.2 -8.2 -6.5 -2.9 -7.3 -4.5 -3.9 -7.9 2.1 -2.1 13.5 -7.9 15.6 -7.9 0.6 0 1.4 -1.4 1.8 -3 0.5 -2.1 2.1 -4 5.3 -6.2 9.9 -6.7 13 -9.8 13.6 -13.8 1 -6.1 4.2 -12.7 6.6 -13.5 3.9 -1.2 4.8 1.1 3.4 9.3 -0.6 4.1 -0.6 4.2 2 4.2 1.8 0 2.6 0.5 2.6 1.8 0 1.2 -1.7 2.3 -5.7 3.7 -4.8 1.6 -5.7 2.4 -5.5 4 1.7 9.8 1.1 12 -4.7 18.3 -2.6 2.8 -3.6 3.2 -8 3.2 -5 0 -5 0 -5.7 3.8 -0.8 4.4 -3.3 8.8 -6.9 12.2 -1.5 1.4 -3.1 3.2 -3.5 4 -0.7 1.3 -0.3 1.5 2.6 1.2 1.9 -0.2 4.1 0.1 4.9 0.8 1.8 1.5 2 7.2 0.4 10.2 -0.6 1.1 -1.2 5.3 -1.3 9.3 -0.1 4.7 -0.7 7.9 -1.6 9 -2.1 2.6 -10.1 7.5 -12.1 7.5 -2.1 0 -2.9 1.1 -4 5.8 -1.1 5.2 1.4 9.2 5.7 9.2 1.8 0 3.9 -0.7 4.8 -1.5 1.9 -1.9 8 -1.9 9.6 0 0.7 0.8 2.6 1.5 4.2 1.5 2.9 0 3 0.1 2.3 3.7 -0.8 4.4 -1.2 5.3 -2.7 5.3 -1.3 0 -5.9 3.6 -5.3 4.2 0.3 0.3 -0.5 1.6 -1.7 3 -1.3 1.4 -2.4 3.2 -2.6 3.9 -0.2 0.8 -0.8 1.6 -1.3 1.7 -0.5 0.2 -0.7 0.8 -0.3 1.3 0.3 0.5 0.1 0.9 -0.5 0.9 -0.6 0 -0.8 0.7 -0.5 1.5 0.4 0.8 0.2 1.5 -0.4 1.5 -0.5 0 -0.9 1.1 -0.9 2.5 0 1.4 0.4 2.5 0.9 2.5 0.6 0 0.7 1.1 0.4 2.5 -0.4 1.6 -0.2 2.5 0.5 2.5 0.7 0 1 1.2 0.7 3 -0.3 1.7 0 3 0.5 3 0.5 0 0.7 0.7 0.3 1.5 -0.3 0.8 -0.1 1.5 0.5 1.5 0.6 0 0.9 0.7 0.5 1.5 -0.3 0.8 -0.1 1.5 0.5 1.5 0.6 0 0.7 0.5 0.4 1 -0.3 0.6 -0.3 1 0.2 1 1.5 0 0.8 26.2 -0.7 29.1 -2 3.6 -8.7 10.9 -10.1 10.9 -0.5 0 -2.4 -3 -4.1 -6.7z m-4.8 -104.5 c0 -1.9 -0.2 -2 -1 -0.8 -1.3 1.9 -1.3 3 0 3 0.6 0 1 -1 1 -2.2z"/>
  <path d="M61.8 217.2 c-5 -4.8 -5 -4.8 -2.6 -10.7 2.3 -5.7 2.6 -6 5.9 -6 3.4 0 3.4 0 2.9 4 -0.3 2.2 -0.5 7 -0.5 10.8 0 3.7 -0.1 6.7 -0.3 6.7 -0.2 0 -2.6 -2.2 -5.4 -4.8z"/>
  <path d="M111.7 171.3 c-1.1 -1 -0.8 -7.3 0.3 -7.3 0.6 0 1 -1.2 1 -2.6 0 -3.9 1.8 -6.4 4.5 -6.4 1.6 0 2.5 -0.6 2.5 -1.5 0 -1 1.1 -1.5 3.5 -1.5 1.9 0 3.5 0.4 3.5 0.8 0 0.4 -2.2 2.5 -5 4.5 -3.5 2.6 -5 4.4 -5 6.1 0 5 -1.2 8.6 -3 8.6 -0.9 0 -2 -0.3 -2.3 -0.7z"/>
 </g>
 <g fill="#0b3870">
  <path d="M305.7 212 c-0.4 -1.7 -0.2 -2 1.4 -1.5 2 0.7 2.8 -1.8 0.9 -3 -2.5 -1.6 0.2 -13.5 3.1 -13.5 1.1 0 3.9 2.5 3.9 3.5 0 1.1 2.8 3.5 4 3.5 2 0 0 6.1 -3.3 9.7 -3.7 4 -9.1 4.7 -10 1.3z"/>
  <path d="M299.7 192.3 c-0.4 -0.3 -1 -2.7 -1.3 -5.3 -0.8 -5.9 -0.6 -5.7 -7.6 -10.3 -3.2 -2 -5.8 -4.3 -5.8 -5 0 -0.6 2.3 -4.3 5.1 -8.1 4.7 -6.4 5.2 -6.8 8.2 -6.2 3.8 0.8 3.8 0.7 4.1 4.8 0.2 1.8 0.6 4.3 1 5.6 0.5 1.5 0.1 3.4 -1.2 5.6 -1.6 2.8 -1.8 4.1 -1.1 8.7 0.5 3.4 0.5 5.5 -0.1 5.7 -1.6 0.6 -1.2 3.2 0.5 3.2 0.8 0 1.5 0.5 1.5 1 0 1.1 -2.3 1.4 -3.3 0.3z"/>
  <path d="M321.5 164.1 c-0.3 -0.5 -2 -1.3 -3.8 -1.7 -3.5 -0.7 -11.8 -7.4 -12.9 -10.4 -0.7 -2 4.1 -9.6 6.8 -10.7 0.8 -0.3 2.6 0.6 4.2 2.3 1.5 1.6 4.4 4 6.4 5.4 2.5 1.7 3.9 3.5 4.3 5.7 0.7 3.6 -0.3 8.3 -1.7 8.3 -0.5 0 -0.6 0.5 -0.3 1 0.3 0.6 -0.1 1 -0.9 1 -0.8 0 -1.7 -0.4 -2.1 -0.9z"/>
  <path d="M277.8 147.2 c-5.9 -4.7 -10.8 -10.1 -13.3 -14.9 -1.1 -2.1 -2.2 -4 -2.5 -4.3 -0.3 -0.3 -1.8 -2.4 -3.3 -4.8 -1.5 -2.3 -3.8 -4.7 -5 -5.2 -1.2 -0.4 -4.9 -1.8 -8.2 -3 -3.3 -1.2 -7.3 -2.8 -8.8 -3.7 -2.6 -1.4 -2.9 -1.3 -5 0.9 -2 2.2 -2.1 2.6 -0.8 3.9 1.4 1.2 1.3 1.4 -0.2 1.7 -0.9 0.2 -1.7 1 -1.7 1.7 0 1.9 -5.1 0.4 -10.2 -3 -4.4 -2.9 -5.8 -2.6 -5.8 1.5 0 3.8 -4.3 8.5 -6.7 7.5 -1 -0.5 -2.1 -0.9 -2.5 -1 -0.5 -0.2 -1.1 -0.4 -1.5 -0.5 -0.5 -0.1 -1.1 -0.2 -1.5 -0.1 -0.4 0 -1.2 -2.4 -1.8 -5.3 -0.6 -3 -1.9 -6.1 -3 -7.1 -1.7 -1.6 -1.9 -1.5 -3.4 0.7 -0.8 1.2 -1.8 3.5 -2.1 4.9 -0.9 3.8 -6.4 9.2 -8.4 8.3 -0.9 -0.4 -2.3 -0.8 -3.1 -0.9 -0.8 -0.1 -2.3 -0.6 -3.3 -1 -1.1 -0.4 -4.1 0.1 -7.6 1.4 -3.2 1.1 -7.9 2.1 -10.5 2.1 -2.5 0 -4.6 0.4 -4.6 0.9 0 0.5 -2.5 3.3 -5.6 6.2 -3.9 3.8 -6.4 5.4 -8.5 5.6 -3.4 0.2 -3.6 -1 -1.8 -9.9 1 -5 1.4 -5.6 4.6 -6.7 2 -0.7 5.2 -2.8 7.3 -4.7 3.1 -2.8 4.5 -3.4 8.3 -3.4 3.5 0 5.6 -0.8 9.7 -3.6 5.1 -3.5 5.5 -3.6 13 -3.2 6.6 0.3 8 0 8.9 -1.4 0.6 -1 1.6 -1.8 2.2 -1.8 0.6 0 2.7 -1.3 4.6 -3 2.9 -2.6 4.1 -3 9.3 -3 5.9 0 5.9 0 6.2 -3.2 0.3 -3.2 0.4 -3.3 5.8 -3.8 5.5 -0.5 5.5 -0.5 5.8 -5.2 0.3 -4.8 0.3 -4.8 -4 -2.9 -2.4 1.1 -6.8 3.3 -9.8 5 -4.8 2.7 -6.5 3.1 -13.1 3.1 -7 0 -17 -2.4 -20.3 -4.8 -0.6 -0.5 -3.4 -1.8 -6.3 -3 -5.1 -2.2 -5.1 -2.2 -9.6 0.3 -2.5 1.4 -5.1 3.2 -5.7 4 -1.5 1.8 -11.7 2 -15.5 0.3 -2.3 -1 -2.5 -1.7 -2.5 -6.9 0 -6.6 1.6 -10.9 3.9 -10.9 2.4 -0.1 10.3 -3.9 12.7 -6.1 2.2 -2 2.2 -2 4.3 0.2 1.2 1.3 2.6 3.8 3.3 5.6 0.7 1.8 1.5 3.3 1.9 3.3 0.3 0 2.2 -2.4 4 -5.4 3.5 -5.7 8.5 -9.1 11.6 -7.9 1.3 0.5 1.5 0.3 1 -1.2 -0.6 -1.5 -0.3 -1.7 2.4 -1.1 1.7 0.3 6.1 0.6 9.8 0.6 6.6 0 6.6 0 9 4.5 1.3 2.5 2.7 4.5 3 4.5 0.3 0 2.6 -1.6 5 -3.5 4 -3.2 4.6 -3.4 6.5 -2.2 1.2 0.8 3.7 4.2 5.6 7.6 2.8 4.8 4.4 6.5 7.9 8.2 2.5 1.1 5.3 3.1 6.3 4.4 2.4 3.1 7.9 4.8 12.6 4.1 2.7 -0.5 4.5 -0.1 7 1.4 2.9 1.8 3.2 2.4 3.2 6.8 0 4.6 0.3 5.1 6 10.6 3.3 3.2 6 5.3 6 4.8 0 -0.6 1 -1.2 2.3 -1.4 1.4 -0.2 2.3 -1.1 2.5 -2.6 0.2 -1.3 1 -2.6 1.8 -2.9 1.9 -0.7 1.8 -2.1 -0.3 -2.6 -1.1 -0.3 -0.7 -0.5 1 -0.6 1.5 0 2.7 0.4 2.7 0.9 0 0.6 0.7 1 1.5 1 0.8 0 1.5 0.5 1.5 1 0 0.6 -0.4 1 -1 1 -0.5 0 -1 0.7 -1 1.5 0 0.8 0.8 1.5 1.8 1.5 1.4 0 1.5 0.2 0.2 1 -0.9 0.6 -1.1 1.3 -0.5 1.8 1.5 1.1 5.9 7.6 4.6 6.8 -0.6 -0.4 -3.3 0.5 -5.9 2 -4.6 2.6 -4.9 3.1 -6.5 9.3 -2.3 9 -2.2 10 0.6 7.3 1.3 -1.2 2.9 -2.2 3.5 -2.2 0.7 0 1.2 -0.5 1.2 -1.2 0 -1.9 2.9 2.5 3 4.5 0 0.9 0.5 1.7 1.1 1.7 0.6 0 0.9 2.4 0.7 6.5 -0.2 3.6 -0.5 6.5 -0.8 6.4 -0.3 0 -2.6 -1.7 -5.2 -3.7z m-14.9 -29.6 c-0.9 -0.8 -1 -0.7 -0.5 0.7 0.3 1 0.7 2.4 0.7 3 0.1 0.7 0.3 0.4 0.6 -0.7 0.3 -1 -0.1 -2.3 -0.8 -3z m-54 -34.7 c1.1 -0.8 2.1 -1.6 2.1 -1.9 -0.1 -0.3 -1.6 -2.3 -3.4 -4.4 -3.4 -3.9 -3.4 -3.9 -8.4 -1.8 -4.9 2.1 -5.2 2.1 -10.1 0.5 -5.2 -1.6 -5.2 -1.6 -8.6 1.7 -2 1.9 -3.4 3.8 -3.2 4.3 0.3 0.9 9.6 5.1 14.7 6.7 2.5 0.7 12.1 -2.2 16.9 -5.1z"/>
  <path d="M151.6 104.9 c-0.3 -1.7 -0.6 -4.8 -0.6 -6.9 0 -3.4 0.3 -3.8 3.1 -4.4 1.7 -0.3 4.7 -0.6 6.5 -0.6 3.3 0 3.4 0.2 3.4 3.8 0 2 -0.5 5.4 -1.1 7.5 -1 3.6 -1.1 3.7 -5.8 3.7 -4.6 0 -4.9 -0.1 -5.5 -3.1z"/>
 </g>
 <g fill="#035851">
  <path d="M291.4 267.4 c0.3 -0.8 -0.8 -4.2 -2.4 -7.4 -4 -8 -3.9 -9.7 1.5 -15 2.5 -2.4 4.5 -5 4.5 -5.7 0 -1.5 -7.7 -7.3 -9.7 -7.3 -1.8 0 -1.7 -3.4 0.3 -7.2 0.9 -1.7 2.2 -5.8 2.9 -9.2 0.7 -3.3 1.4 -5.5 1.4 -4.8 0.1 0.9 0.7 1 1.9 0.4 0.9 -0.5 5.4 -0.8 10 -0.7 8.2 0.2 8.2 0.2 11.8 -3.7 1.9 -2.1 3.2 -4.3 2.9 -4.8 -0.4 -0.6 0.2 -1 1.3 -1 1 0 2.7 -0.9 3.7 -2 1 -1.1 2.9 -2 4.1 -2 1.8 0 2.5 -0.7 2.9 -2.7 1.5 -7.5 2.7 -10.2 5.5 -12.6 1.6 -1.5 3 -2.3 3 -1.7 0 0.5 0.6 1 1.4 1 0.8 0 1.6 1.5 2 3.8 1 6.1 0.7 8.2 -1 8.2 -1.9 0 -11.4 6 -11.4 7.2 0 1.2 2.8 1 3.5 -0.3 0.5 -0.7 1.3 -0.4 2.6 0.7 1 0.9 1.6 2.1 1.3 2.6 -0.4 0.6 0.2 0.8 1.2 0.6 1.3 -0.2 2 -1.3 2.2 -3.6 0.2 -1.8 0.9 -3.2 1.6 -3.2 2.1 0 2 23.3 -0.1 28.2 -2.3 5.5 -4.5 5.7 -9 0.7 -2.1 -2.3 -3.9 -4.5 -4.1 -5 -1.1 -2.9 -10.2 3.6 -10.8 7.7 -0.3 2 -3.3 5.4 -4.9 5.4 -0.6 0 -2.6 -1.6 -4.5 -3.5 -1.9 -1.9 -3.9 -3.5 -4.5 -3.5 -0.5 0 -1.8 2.8 -2.8 6.3 -1.6 5.7 -1.7 6.6 -0.3 10.6 1.5 4.1 1.8 11.1 0.5 11.1 -0.4 0 -1 1.2 -1.4 2.8 -0.9 3.7 -5.3 11.2 -6.6 11.2 -0.6 0 -0.8 -0.7 -0.5 -1.6z"/>
 </g>
 <g fill="#4d0d3f">
  <path d="M104.2 181.4 c-0.6 -1.1 -1.2 -2.3 -1.4 -2.9 -0.1 -0.5 -1 -0.9 -1.8 -0.8 -12.9 1.7 -11.5 2 -14.5 -3.2 -2.6 -4.3 -2.7 -4.9 -1.5 -8.8 2.1 -7.3 2.9 -8.7 4.8 -8.7 2.1 0 10 -4.8 12.2 -7.4 1 -1.3 1.4 -3.9 1.2 -8.3 -0.1 -4.2 0.4 -7.5 1.4 -9.5 1.8 -3.5 0.4 -6.4 -2.5 -4.9 -1.4 0.7 -5.9 0.6 -6.7 -0.2 -0.2 -0.1 0.1 -1.9 0.6 -4 0.4 -2.2 2.5 -5.6 4.8 -8.1 4.7 -5.1 5.7 -6.9 6.6 -11.8 0.7 -3.8 0.7 -3.8 5.7 -3.8 4.4 0 5.4 -0.4 8 -3.3 1.7 -1.7 3.7 -4.4 4.5 -5.9 1.3 -2.5 1.3 -3.2 -0.5 -6.7 -1.6 -3.5 -1.7 -4.3 -0.5 -6 2.7 -3.8 20.3 -7.8 18.9 -4.3 -0.3 0.8 -0.5 1.8 -0.5 2.3 0 0.5 -0.6 0.9 -1.4 0.9 -2.9 0 -3.6 7.5 -0.8 9.6 1.6 1.3 1.5 1.6 -1.3 4.2 -2.7 2.5 -3 3.2 -2.7 8.2 0.3 5.4 0.3 5.6 -3.8 8.7 -4.2 3.2 -13 16 -13 18.8 0 2.2 1.6 1.8 3.3 -0.9 4.2 -6.3 9.4 -7.6 12.9 -3.1 1.3 1.6 2.9 2.5 4.9 2.5 1.9 0 2.9 0.5 2.9 1.5 0 0.8 -0.6 1.5 -1.4 1.5 -1.7 0 -3.8 10 -2.5 11.6 0.7 0.8 0.2 1.2 -1.6 1.2 -3.3 0 -5.2 1.6 -6.6 6 -1.2 4 -5.5 9.2 -7.5 9.2 -0.6 0 -1.4 0.6 -1.7 1.4 -0.3 0.8 -1.6 1.6 -2.9 1.8 -1.3 0.2 -2.2 0.9 -2.1 1.6 0.2 0.6 -0.1 1.2 -0.7 1.2 -0.5 0 -0.7 1.3 -0.3 3 0.4 2.5 0.2 3 -1.3 3 -1.4 0 -1.5 0.3 -0.6 1.2 1.8 1.8 1.6 9.8 -0.3 9.8 -0.8 0 -1.5 0.9 -1.5 1.9 0 2.2 -2.7 3.6 -4.5 2.1 -0.7 -0.6 -1.5 -0.6 -2.2 0.1 -0.8 0.8 -1.4 0.6 -2.1 -0.7z m1.9 -4.7 c-1.1 -1.2 -2.4 -1.8 -2.7 -1.4 -1 1 2.7 4.8 3.8 4.1 0.6 -0.4 0.1 -1.6 -1.1 -2.7z"/>
 </g>
 <g fill="#061e54">
  <path d="M268.1 135.4 c-0.2 -2 -6.3 -10.4 -7.2 -9.8 -0.5 0.3 -0.9 -0.3 -0.9 -1.3 0 -1.1 -0.7 -2.8 -1.5 -3.9 -2 -2.6 -1.9 -4.8 0.3 -6.7 2.4 -2.2 5.8 -2.2 6.8 0.1 0.4 0.9 1.3 4.9 1.9 8.7 1.1 6.4 1.3 6.8 2.3 4.5 0.9 -2.1 1.1 -2.2 1.1 -0.5 -0.1 2.3 -2.6 10.6 -2.8 8.9z"/>
  <path d="M117.6 129.9 c-0.9 -2.9 -1.6 -5.7 -1.6 -6.2 0 -2.5 10.5 -17.5 14 -20.1 3.9 -2.9 3.9 -3 3.4 -8.5 -0.4 -5.3 -0.3 -5.7 2.6 -8 2.7 -2 3.5 -2.2 5.6 -1.2 3.7 1.7 7.3 1.3 10.2 -1 4.9 -3.7 10.3 -6.9 11.7 -6.9 1.5 0 13.3 4.8 15.1 6.2 2.5 1.8 13 4.8 17 4.8 3.3 0 6.9 -1.3 14.2 -5 5.4 -2.8 11.1 -5.2 12.8 -5.3 2.9 -0.2 2.9 -0.2 3.2 7.1 0.4 9.2 -0.6 10.6 -6.4 9.7 -2.6 -0.3 -4.5 -0.2 -4.9 0.5 -0.3 0.5 0.1 1 0.9 1 1.1 0 1.6 1 1.6 3.1 0 3.1 0 3.1 -7.4 2.4 -7.2 -0.6 -7.4 -0.6 -10.9 2.4 -1.9 1.7 -3.9 3.1 -4.4 3.1 -0.5 0 -1.9 1.1 -3 2.4 -1.9 2.2 -2.6 2.3 -6 1.5 -7 -1.6 -10.1 -1.1 -15.4 2.6 -4.1 2.8 -6.1 3.5 -9.8 3.5 -3.8 0 -5.2 0.5 -7.2 2.6 -6.1 6.5 -16.1 8.5 -19.8 3.8 -2 -2.5 -2 -2.5 -4.3 0.2 -1.3 1.6 -4 4.6 -6 6.7 -3.7 3.9 -3.7 3.9 -5.2 -1.4z m42.3 -28.6 c1.5 -5.4 1.5 -5.5 -2.1 -4.8 -4.2 0.9 -4 0.7 -3.3 4.9 1 5 4 5 5.4 -0.1z"/>
  <path d="M219.7 105.3 c-1.2 -1.1 -0.7 -3.3 0.7 -3.3 0.8 0 1.7 -0.8 2 -1.7 0.6 -1.5 0.8 -1.5 1.6 -0.3 0.6 0.8 1 2.5 1 3.8 0 1.6 -0.6 2.2 -2.3 2.2 -1.3 0 -2.7 -0.3 -3 -0.7z"/>
  <path d="M139.1 75.7 c-0.1 -2.1 0.5 -3 2.5 -3.7 3.3 -1.3 5.4 -1.2 3.2 0.1 -1 0.5 -1.8 1.7 -1.8 2.4 0 0.8 -0.6 1.5 -1.4 1.5 -0.8 0 -1.7 0.6 -1.9 1.3 -0.3 0.6 -0.6 0 -0.6 -1.6z"/>
 </g>
</svg>